  0
SECTION
  2
HEADER
  9
$ACADVER
  1
AC1009
  9
$INSBASE
 10
0.0
 20
0.0
 30
0.0
  9
$EXTMIN
 10
1.0000000000000000E+020
 20
1.0000000000000000E+020
 30
1.0000000000000000E+020
  9
$EXTMAX
 10
-1.0000000000000000E+020
 20
-1.0000000000000000E+020
 30
-1.0000000000000000E+020
  9
$LIMMIN
 10
0.0
 20
0.0
  9
$LIMMAX
 10
12.0
 20
9.0
  9
$ORTHOMODE
 70
     0
  9
$REGENMODE
 70
     1
  9
$FILLMODE
 70
     1
  9
$QTEXTMODE
 70
     0
  9
$MIRRTEXT
 70
     1
  9
$DRAGMODE
 70
     2
  9
$LTSCALE
 40
1.0
  9
$OSMODE
 70
     0
  9
$ATTMODE
 70
     1
  9
$TEXTSIZE
 40
0.2
  9
$TRACEWID
 40
0.05
  9
$TEXTSTYLE
  7
STANDARD
  9
$CLAYER
  8
0
  9
$CELTYPE
  6
BYLAYER
  9
$CECOLOR
 62
   256
  9
$DIMSCALE
 40
1.0
  9
$DIMASZ
 40
0.18
  9
$DIMEXO
 40
0.0625
  9
$DIMDLI
 40
0.38
  9
$DIMRND
 40
0.0
  9
$DIMDLE
 40
0.0
  9
$DIMEXE
 40
0.18
  9
$DIMTP
 40
0.0
  9
$DIMTM
 40
0.0
  9
$DIMTXT
 40
0.18
  9
$DIMCEN
 40
0.09
  9
$DIMTSZ
 40
0.0
  9
$DIMTOL
 70
     0
  9
$DIMLIM
 70
     0
  9
$DIMTIH
 70
     1
  9
$DIMTOH
 70
     1
  9
$DIMSE1
 70
     0
  9
$DIMSE2
 70
     0
  9
$DIMTAD
 70
     0
  9
$DIMZIN
 70
     0
  9
$DIMBLK
  1

  9
$DIMASO
 70
     1
  9
$DIMSHO
 70
     1
  9
$DIMPOST
  1

  9
$DIMAPOST
  1

  9
$DIMALT
 70
     0
  9
$DIMALTD
 70
     2
  9
$DIMALTF
 40
25.399999999999999
  9
$DIMLFAC
 40
1.0
  9
$DIMTOFL
 70
     0
  9
$DIMTVP
 40
0.0
  9
$DIMTIX
 70
     0
  9
$DIMSOXD
 70
     0
  9
$DIMSAH
 70
     0
  9
$DIMBLK1
  1

  9
$DIMBLK2
  1

  9
$DIMSTYLE
  2
STANDARD
  9
$DIMCLRD
 70
     0
  9
$DIMCLRE
 70
     0
  9
$DIMCLRT
 70
     0
  9
$DIMTFAC
 40
1.0
  9
$DIMGAP
 40
0.09
  9
$LUNITS
 70
     2
  9
$LUPREC
 70
     4
  9
$SKETCHINC
 40
0.1
  9
$FILLETRAD
 40
0.5
  9
$AUNITS
 70
     0
  9
$AUPREC
 70
     0
  9
$MENU
  1
.
  9
$ELEVATION
 40
0.0
  9
$PELEVATION
 40
0.0
  9
$THICKNESS
 40
0.0
  9
$LIMCHECK
 70
     0
  9
$BLIPMODE
 70
     0
  9
$CHAMFERA
 40
0.5
  9
$CHAMFERB
 40
0.5
  9
$SKPOLY
 70
     0
  9
$TDCREATE
 40
2451381.180432396
  9
$TDUPDATE
 40
2451381.216180556
  9
$TDINDWG
 40
0.0075605787
  9
$TDUSRTIMER
 40
0.0075515394
  9
$USRTIMER
 70
     1
  9
$ANGBASE
 50
0.0
  9
$ANGDIR
 70
     0
  9
$PDMODE
 70
     0
  9
$PDSIZE
 40
0.0
  9
$PLINEWID
 40
0.0
  9
$COORDS
 70
     0
  9
$SPLFRAME
 70
     0
  9
$SPLINETYPE
 70
     6
  9
$SPLINESEGS
 70
     8
  9
$ATTDIA
 70
     0
  9
$ATTREQ
 70
     1
  9
$HANDLING
 70
     1
  9
$HANDSEED
  5
287
  9
$SURFTAB1
 70
     6
  9
$SURFTAB2
 70
     6
  9
$SURFTYPE
 70
     6
  9
$SURFU
 70
     6
  9
$SURFV
 70
     6
  9
$UCSNAME
  2

  9
$UCSORG
 10
0.0
 20
0.0
 30
0.0
  9
$UCSXDIR
 10
1.0
 20
0.0
 30
0.0
  9
$UCSYDIR
 10
0.0
 20
1.0
 30
0.0
  9
$PUCSNAME
  2

  9
$PUCSORG
 10
0.0
 20
0.0
 30
0.0
  9
$PUCSXDIR
 10
1.0
 20
0.0
 30
0.0
  9
$PUCSYDIR
 10
0.0
 20
1.0
 30
0.0
  9
$USERI1
 70
     0
  9
$USERI2
 70
     0
  9
$USERI3
 70
     0
  9
$USERI4
 70
     0
  9
$USERI5
 70
     0
  9
$USERR1
 40
0.0
  9
$USERR2
 40
0.0
  9
$USERR3
 40
0.0
  9
$USERR4
 40
0.0
  9
$USERR5
 40
0.0
  9
$WORLDVIEW
 70
     1
  9
$SHADEDGE
 70
     3
  9
$SHADEDIF
 70
    70
  9
$TILEMODE
 70
     1
  9
$MAXACTVP
 70
    64
  9
$PLIMCHECK
 70
     0
  9
$PEXTMIN
 10
1.0000000000000000E+020
 20
1.0000000000000000E+020
 30
1.0000000000000000E+020
  9
$PEXTMAX
 10
-1.0000000000000000E+020
 20
-1.0000000000000000E+020
 30
-1.0000000000000000E+020
  9
$PLIMMIN
 10
0.0
 20
0.0
  9
$PLIMMAX
 10
12.0
 20
9.0
  9
$UNITMODE
 70
     0
  9
$VISRETAIN
 70
     1
  9
$PLINEGEN
 70
     0
  9
$PSLTSCALE
 70
     1
  0
ENDSEC
  0
SECTION
  2
TABLES
  0
TABLE
  2
VPORT
 70
     1
  0
VPORT
  2
*ACTIVE
 70
     0
 10
0.0
 20
0.0
 11
1.0
 21
1.0
 12
83.002098083496094
 22
-54.045005798339837
 13
0.0
 23
0.0
 14
0.5
 24
0.5
 15
0.5
 25
0.5
 16
-1.0
 26
-1.0
 36
1.0
 17
0.0
 27
0.0
 37
0.0
 40
260.38128661636631
 41
1.21319645849077
 42
50.0
 43
0.0
 44
0.0
 50
0.0
 51
0.0
 71
     0
 72
   100
 73
     1
 74
     3
 75
     0
 76
     0
 77
     0
 78
     0
  0
ENDTAB
  0
TABLE
  2
LTYPE
 70
     1
  0
LTYPE
  2
CONTINUOUS
 70
     0
  3
Solid line
 72
    65
 73
     0
 40
0.0
  0
ENDTAB
  0
TABLE
  2
LAYER
 70
     2
  0
LAYER
  2
0
 70
     0
 62
     7
  6
CONTINUOUS
  0
LAYER
  2
ASHADE
 70
     4
 62
     7
  6
CONTINUOUS
  0
ENDTAB
  0
TABLE
  2
STYLE
 70
     2
  0
STYLE
  2
STANDARD
 70
     0
 40
0.0
 41
1.0
 50
0.0
 71
     0
 42
0.2
  3
txt
  4

  0
STYLE
  2
ASHADE
 70
     0
 40
0.2
 41
1.0
 50
0.0
 71
     0
 42
0.2
  3
simplex
  4

  0
ENDTAB
  0
TABLE
  2
VIEW
 70
     0
  0
ENDTAB
  0
TABLE
  2
UCS
 70
     0
  0
ENDTAB
  0
TABLE
  2
APPID
 70
     6
  0
APPID
  2
ACAD
 70
     0
  0
APPID
  2
AVE_RENDER
 70
     0
  0
APPID
  2
AVE_ENTITY_MATERIAL
 70
     0
  0
APPID
  2
AVE_FINISH
 70
     0
  0
APPID
  2
AVE_MATERIAL
 70
     0
  0
APPID
  2
AVE_GLOBAL
 70
     0
  0
ENDTAB
  0
TABLE
  2
DIMSTYLE
 70
     1
  0
DIMSTYLE
  2
STANDARD
 70
     0
  3

  4

  5

  6

  7

 40
1.0
 41
0.18
 42
0.0625
 43
0.38
 44
0.18
 45
0.0
 46
0.0
 47
0.0
 48
0.0
140
0.18
141
0.09
142
0.0
143
25.399999999999999
144
1.0
145
0.0
146
1.0
147
0.09
 71
     0
 72
     0
 73
     1
 74
     1
 75
     0
 76
     0
 77
     0
 78
     0
170
     0
171
     2
172
     0
173
     0
174
     0
175
     0
176
     0
177
     0
178
     0
  0
ENDTAB
  0
ENDSEC
  0
SECTION
  2
BLOCKS
  0
BLOCK
  8
0
  2
$MODEL_SPACE
 70
     0
 10
0.0
 20
0.0
 30
0.0
  3
$MODEL_SPACE
  1

  0
ENDBLK
  5
21
  8
0
  0
BLOCK
 67
     1
  8
0
  2
$PAPER_SPACE
 70
     0
 10
0.0
 20
0.0
 30
0.0
  3
$PAPER_SPACE
  1

  0
ENDBLK
  5
1D
 67
     1
  8
0
  0
BLOCK
  8
0
  2
DIRECT
 70
     2
 10
0.0
 20
0.0
 30
0.0
  3
DIRECT
  1

  0
ATTDEF
  5
2F
  8
ASHADE
  6
CONTINUOUS
 62
     1
 10
0.0
 20
-0.1
 30
0.0
 40
0.2
  1

  7
ASHADE
 72
     1
 11
0.0
 21
-0.1
 31
0.0
  3
Light Name
  2
SNAME
 70
     0
  0
ARC
  5
30
  8
ASHADE
  6
CONTINUOUS
 62
     7
 10
0.0
 20
0.0
 30
0.0
 40
0.3
 50
205.67928861945691
 51
334.32071138054312
  0
ARC
  5
31
  8
ASHADE
  6
CONTINUOUS
 62
     7
 10
0.0
 20
0.0
 30
0.0
 40
0.3
 50
25.679288619456852
 51
154.32071138054309
  0
LINE
  5
32
  8
ASHADE
  6
CONTINUOUS
 62
     7
 10
-0.21
 20
0.2142428528562855
 30
0.0
 11
-0.21
 21
0.5
 31
0.0
  0
LINE
  5
33
  8
ASHADE
  6
CONTINUOUS
 62
     7
 10
-0.11
 20
0.2791057147390572
 30
0.0
 11
-0.11
 21
0.5
 31
0.0
  0
LINE
  5
34
  8
ASHADE
  6
CONTINUOUS
 62
     7
 10
0.21
 20
0.2142428528562855
 30
0.0
 11
0.21
 21
0.5
 31
0.0
  0
ATTDEF
  5
35
  8
ASHADE
  6
CONTINUOUS
 62
     7
 10
0.0
 20
0.25
 30
0.0
 40
0.01
  1

  3
Look-at Y
  2
LAY
 70
     1
  0
ATTDEF
  5
36
  8
ASHADE
  6
CONTINUOUS
 62
     7
 10
0.0
 20
0.22
 30
0.0
 40
0.01
  1
1
  3
Light Intensity
  2
INTENSITY
 70
     1
  0
ATTDEF
  5
37
  8
ASHADE
  6
CONTINUOUS
 62
     7
 10
0.0
 20
0.16
 30
0.0
 40
0.01
  1
-1
  3
*not used*
  2
BEAMD
 70
     1
  0
ATTDEF
  5
38
  8
ASHADE
  6
CONTINUOUS
 62
     7
 10
0.0
 20
0.175
 30
0.0
 40
0.01
  1
-1
  3
*not used*
  2
CONED
 70
     1
  0
ATTDEF
  5
39
  8
ASHADE
  6
CONTINUOUS
 62
     7
 10
0.0
 20
0.19
 30
0.0
 40
0.01
  1
0
  3
Depth Map Size
  2
CONEA
 70
     1
  0
ATTDEF
  5
3A
  8
ASHADE
  6
CONTINUOUS
 62
     7
 10
0.0
 20
0.2050000000000001
 30
0.0
 40
0.01
  1
1,1,1
  3
Light Color (RGB)
  2
COLOR
 70
     1
  0
ATTDEF
  5
3B
  8
ASHADE
  6
CONTINUOUS
 62
     7
 10
0.0
 20
0.235
 30
0.0
 40
0.01
  1

  3
Look-at Z
  2
LAZ
 70
     1
  0
LINE
  5
3C
  8
ASHADE
  6
CONTINUOUS
 62
     7
 10
0.0
 20
0.3
 30
0.0
 11
0.0
 21
0.5
 31
0.0
  0
LINE
  5
3D
  8
ASHADE
  6
CONTINUOUS
 62
     7
 10
0.11
 20
0.2791057147390572
 30
0.0
 11
0.11
 21
0.5
 31
0.0
  0
ATTDEF
  5
3E
  8
ASHADE
  6
CONTINUOUS
 62
     7
 10
0.0
 20
0.265
 30
0.0
 40
0.01
  1

  3
Look-at X
  2
LAX
 70
     1
  0
ATTDEF
  5
3F
  8
ASHADE
  6
CONTINUOUS
 62
     7
 10
0.0
 20
0.28
 30
0.0
 40
0.01
  1

  3

  2
GNAME
 70
     1
  0
ENDBLK
  5
41
  8
0
  0
BLOCK
  8
0
  2
OVERHEAD
 70
     2
 10
0.0
 20
0.0
 30
0.0
  3
OVERHEAD
  1

  0
ATTDEF
  5
43
  8
ASHADE
  6
CONTINUOUS
 62
     1
 10
0.0
 20
-0.1
 30
0.0
 40
0.2
  1

  7
ASHADE
 72
     1
 11
0.0
 21
-0.1
 31
0.0
  3
Light Name
  2
SNAME
 70
     0
  0
ARC
  5
44
  8
ASHADE
  6
CONTINUOUS
 62
     7
 10
0.0
 20
0.0
 30
0.0
 40
0.3
 50
205.67928861945691
 51
334.32071138054312
  0
LINE
  5
45
  8
ASHADE
  6
CONTINUOUS
 62
     7
 10
-0.2041413561583015
 20
-0.2198324514393848
 30
0.0
 11
-0.2721884748777353
 21
-0.2931099352525131
 31
0.0
  0
LINE
  5
46
  8
ASHADE
  6
CONTINUOUS
 62
     7
 10
-0.1096591641591904
 20
-0.2792398032442862
 30
0.0
 11
-0.1279356915190555
 21
-0.3257797704516673
 31
0.0
  0
LINE
  5
47
  8
ASHADE
  6
CONTINUOUS
 62
     7
 10
0.0
 20
-0.2999999999999999
 30
0.0
 11
0.0
 21
-0.4
 31
0.0
  0
LINE
  5
48
  8
ASHADE
  6
CONTINUOUS
 62
     7
 10
0.1096591641591904
 20
-0.2792398032442862
 30
0.0
 11
0.1279356915190555
 21
-0.3257797704516673
 31
0.0
  0
LINE
  5
49
  8
ASHADE
  6
CONTINUOUS
 62
     7
 10
0.2041413561583015
 20
-0.2198324514393848
 30
0.0
 11
0.2721884748777353
 21
-0.2931099352525131
 31
0.0
  0
ARC
  5
4A
  8
ASHADE
  6
CONTINUOUS
 62
     7
 10
0.0
 20
0.0
 30
0.0
 40
0.3
 50
25.679288619456852
 51
154.32071138054309
  0
LINE
  5
4B
  8
ASHADE
  6
CONTINUOUS
 62
     7
 10
-0.2703701166919155
 20
0.13
 30
0.0
 11
-0.3154318028072347
 21
0.1516666666666666
 31
0.0
  0
LINE
  5
4C
  8
ASHADE
  6
CONTINUOUS
 62
     7
 10
-0.2703701166919155
 20
-0.13
 30
0.0
 11
-0.3154318028072347
 21
-0.1516666666666666
 31
0.0
  0
LINE
  5
4D
  8
ASHADE
  6
CONTINUOUS
 62
     7
 10
-0.2041413561583015
 20
0.2198324514393849
 30
0.0
 11
-0.2721884748777353
 21
0.2931099352525131
 31
0.0
  0
LINE
  5
4E
  8
ASHADE
  6
CONTINUOUS
 62
     7
 10
-0.1096591641591904
 20
0.2792398032442862
 30
0.0
 11
-0.1279356915190555
 21
0.3257797704516674
 31
0.0
  0
LINE
  5
4F
  8
ASHADE
  6
CONTINUOUS
 62
     7
 10
0.2703701166919155
 20
-0.13
 30
0.0
 11
0.3154318028072347
 21
-0.1516666666666666
 31
0.0
  0
LINE
  5
50
  8
ASHADE
  6
CONTINUOUS
 62
     7
 10
0.2703701166919155
 20
0.13
 30
0.0
 11
0.3154318028072347
 21
0.1516666666666666
 31
0.0
  0
LINE
  5
51
  8
ASHADE
  6
CONTINUOUS
 62
     7
 10
0.0
 20
0.3
 30
0.0
 11
0.0
 21
0.4
 31
0.0
  0
ATTDEF
  5
52
  8
ASHADE
  6
CONTINUOUS
 62
     7
 10
0.0
 20
0.22
 30
0.0
 40
0.01
  1
1
  3
Light Intensity
  2
INTENSITY
 70
     1
  0
ATTDEF
  5
53
  8
ASHADE
  6
CONTINUOUS
 62
     7
 10
0.0
 20
0.16
 30
0.0
 40
0.01
  1
-1
  3
*not used*
  2
BEAMD
 70
     1
  0
ATTDEF
  5
54
  8
ASHADE
  6
CONTINUOUS
 62
     7
 10
0.0
 20
0.175
 30
0.0
 40
0.01
  1
-1
  3
*not used*
  2
CONED
 70
     1
  0
ATTDEF
  5
55
  8
ASHADE
  6
CONTINUOUS
 62
     7
 10
0.0
 20
0.19
 30
0.0
 40
0.01
  1
0
  3
Depth Map Size
  2
CONEA
 70
     1
  0
ATTDEF
  5
56
  8
ASHADE
  6
CONTINUOUS
 62
     7
 10
0.0
 20
0.2050000000000001
 30
0.0
 40
0.01
  1
1,1,1
  3
Light Color (RGB)
  2
COLOR
 70
     1
  0
ATTDEF
  5
57
  8
ASHADE
  6
CONTINUOUS
 62
     7
 10
0.0
 20
0.235
 30
0.0
 40
0.01
  1

  3
Look-at Z
  2
LAZ
 70
     1
  0
ATTDEF
  5
58
  8
ASHADE
  6
CONTINUOUS
 62
     7
 10
0.0
 20
0.25
 30
0.0
 40
0.01
  1

  3
Look-at Y
  2
LAY
 70
     1
  0
ATTDEF
  5
59
  8
ASHADE
  6
CONTINUOUS
 62
     7
 10
0.0
 20
0.265
 30
0.0
 40
0.01
  1

  3
Look-at X
  2
LAX
 70
     1
  0
ATTDEF
  5
5A
  8
ASHADE
  6
CONTINUOUS
 62
     7
 10
0.0
 20
0.28
 30
0.0
 40
0.01
  1

  3

  2
GNAME
 70
     1
  0
LINE
  5
5B
  8
ASHADE
  6
CONTINUOUS
 62
     7
 10
0.1096591641591904
 20
0.2792398032442862
 30
0.0
 11
0.1279356915190555
 21
0.3257797704516674
 31
0.0
  0
LINE
  5
5C
  8
ASHADE
  6
CONTINUOUS
 62
     7
 10
0.2041413561583015
 20
0.2198324514393849
 30
0.0
 11
0.2721884748777353
 21
0.2931099352525131
 31
0.0
  0
ENDBLK
  5
5E
  8
0
  0
BLOCK
  8
0
  2
SH_SPOT
 70
     2
 10
0.0
 20
0.0
 30
0.0
  3
SH_SPOT
  1

  0
LINE
  5
60
  8
ASHADE
  6
CONTINUOUS
 62
     7
 10
0.25
 20
0.26
 30
0.0
 11
-0.25
 21
0.26
 31
0.0
  0
LINE
  5
61
  8
ASHADE
  6
CONTINUOUS
 62
     7
 10
-0.25
 20
-0.3399999999999999
 30
0.0
 11
0.25
 21
-0.3399999999999999
 31
0.0
  0
ATTDEF
  5
62
  8
ASHADE
  6
CONTINUOUS
 62
     1
 10
0.0
 20
-0.1
 30
0.0
 40
0.2
  1

  7
ASHADE
 72
     1
 11
0.0
 21
-0.1
 31
0.0
  3
Light Name
  2
SNAME
 70
     0
  0
LINE
  5
63
  8
ASHADE
  6
CONTINUOUS
 62
     7
 10
-0.25
 20
-0.13
 30
0.0
 11
-0.25
 21
-0.3399999999999999
 31
0.0
  0
LINE
  5
64
  8
ASHADE
  6
CONTINUOUS
 62
     7
 10
-0.25
 20
-0.18
 30
0.0
 11
-0.29
 21
-0.18
 31
0.0
  0
LINE
  5
65
  8
ASHADE
  6
CONTINUOUS
 62
     7
 10
-0.29
 20
-0.22
 30
0.0
 11
-0.25
 21
-0.22
 31
0.0
  0
LINE
  5
66
  8
ASHADE
  6
CONTINUOUS
 62
     7
 10
-0.29
 20
-0.18
 30
0.0
 11
-0.29
 21
-0.22
 31
0.0
  0
LINE
  5
67
  8
ASHADE
  6
CONTINUOUS
 62
     7
 10
-0.1045454545454545
 20
0.26
 30
0.0
 11
-0.15
 21
0.46
 31
0.0
  0
LINE
  5
68
  8
ASHADE
  6
CONTINUOUS
 62
     7
 10
-0.21
 20
0.26
 30
0.0
 11
-0.301304347826087
 21
0.46
 31
0.0
  0
LINE
  5
69
  8
ASHADE
  6
CONTINUOUS
 62
     7
 10
-0.25
 20
0.26
 30
0.0
 11
-0.25
 21
0.13
 31
0.0
  0
LINE
  5
6A
  8
ASHADE
  6
CONTINUOUS
 62
     7
 10
-0.25
 20
0.22
 30
0.0
 11
-0.29
 21
0.22
 31
0.0
  0
LINE
  5
6B
  8
ASHADE
  6
CONTINUOUS
 62
     7
 10
-0.29
 20
0.1799999999999999
 30
0.0
 11
-0.25
 21
0.1799999999999999
 31
0.0
  0
LINE
  5
6C
  8
ASHADE
  6
CONTINUOUS
 62
     7
 10
-0.29
 20
0.22
 30
0.0
 11
-0.29
 21
0.1799999999999999
 31
0.0
  0
ATTDEF
  5
6D
  8
ASHADE
  6
CONTINUOUS
 62
     7
 10
0.0
 20
-0.24
 30
0.0
 40
0.01
  1
0
  3
Depth Map Size
  2
ZSIZE
 70
     1
  0
ATTDEF
  5
6E
  8
ASHADE
  6
CONTINUOUS
 62
     7
 10
0.0
 20
-0.3300000000000001
 30
0.0
 40
0.01
  1
0,0,0
  3
Look-from XYZ
  2
LFXYZ
 70
     1
  0
ATTDEF
  5
6F
  8
ASHADE
  6
CONTINUOUS
 62
     7
 10
0.0
 20
-0.315
 30
0.0
 40
0.01
  1
0.0
  3
Beam Distribution
  2
BEAMDI
 70
     1
  0
ATTDEF
  5
70
  8
ASHADE
  6
CONTINUOUS
 62
     7
 10
0.0
 20
-0.3
 30
0.0
 40
0.01
  1
0.0
  3
Cone Delta
  2
CONEDE
 70
     1
  0
ATTDEF
  5
71
  8
ASHADE
  6
CONTINUOUS
 62
     7
 10
0.0
 20
-0.2850000000000001
 30
0.0
 40
0.01
  1
10.0
  3
Cone Angle
  2
CONEAN
 70
     1
  0
ATTDEF
  5
72
  8
ASHADE
  6
CONTINUOUS
 62
     7
 10
0.0
 20
-0.27
 30
0.0
 40
0.01
  1
-1
  3
*not used*
  2
BIASMAX
 70
     1
  0
ATTDEF
  5
73
  8
ASHADE
  6
CONTINUOUS
 62
     7
 10
0.0
 20
-0.255
 30
0.0
 40
0.01
  1
-1
  3
*not used*
  2
BIASMIN
 70
     1
  0
ATTDEF
  5
74
  8
ASHADE
  6
CONTINUOUS
 62
     7
 10
0.0
 20
-0.225
 30
0.0
 40
0.01
  1
1,1,1
  3
Light Color (RGB)
  2
COLOR
 70
     1
  0
ATTDEF
  5
75
  8
ASHADE
  6
CONTINUOUS
 62
     7
 10
0.0
 20
-0.21
 30
0.0
 40
0.01
  1
1
  3
Light Intensity
  2
INTENSITY
 70
     1
  0
ATTDEF
  5
76
  8
ASHADE
  6
CONTINUOUS
 62
     7
 10
0.0
 20
-0.15
 30
0.0
 40
0.01
  1

  3

  2
GNAME
 70
     1
  0
ATTDEF
  5
77
  8
ASHADE
  6
CONTINUOUS
 62
     7
 10
0.0
 20
-0.195
 30
0.0
 40
0.01
  1

  3
Look-at Z
  2
LAZ
 70
     1
  0
ATTDEF
  5
78
  8
ASHADE
  6
CONTINUOUS
 62
     7
 10
0.0
 20
-0.18
 30
0.0
 40
0.01
  1

  3
Look-at Y
  2
LAY
 70
     1
  0
ATTDEF
  5
79
  8
ASHADE
  6
CONTINUOUS
 62
     7
 10
0.0
 20
-0.165
 30
0.0
 40
0.01
  1

  3
Look-at X
  2
LAX
 70
     1
  0
LINE
  5
7A
  8
ASHADE
  6
CONTINUOUS
 62
     7
 10
0.25
 20
-0.3399999999999999
 30
0.0
 11
0.25
 21
-0.13
 31
0.0
  0
LINE
  5
7B
  8
ASHADE
  6
CONTINUOUS
 62
     7
 10
0.25
 20
-0.18
 30
0.0
 11
0.29
 21
-0.18
 31
0.0
  0
LINE
  5
7C
  8
ASHADE
  6
CONTINUOUS
 62
     7
 10
0.29
 20
-0.22
 30
0.0
 11
0.25
 21
-0.22
 31
0.0
  0
LINE
  5
7D
  8
ASHADE
  6
CONTINUOUS
 62
     7
 10
0.29
 20
-0.18
 30
0.0
 11
0.29
 21
-0.22
 31
0.0
  0
LINE
  5
7E
  8
ASHADE
  6
CONTINUOUS
 62
     7
 10
0.21
 20
0.26
 30
0.0
 11
0.301304347826087
 21
0.46
 31
0.0
  0
LINE
  5
7F
  8
ASHADE
  6
CONTINUOUS
 62
     7
 10
0.1045454545454545
 20
0.26
 30
0.0
 11
0.15
 21
0.46
 31
0.0
  0
LINE
  5
80
  8
ASHADE
  6
CONTINUOUS
 62
     7
 10
0.0
 20
0.26
 30
0.0
 11
0.0
 21
0.46
 31
0.0
  0
LINE
  5
81
  8
ASHADE
  6
CONTINUOUS
 62
     7
 10
0.25
 20
0.13
 30
0.0
 11
0.25
 21
0.26
 31
0.0
  0
LINE
  5
82
  8
ASHADE
  6
CONTINUOUS
 62
     7
 10
0.25
 20
0.22
 30
0.0
 11
0.29
 21
0.22
 31
0.0
  0
LINE
  5
83
  8
ASHADE
  6
CONTINUOUS
 62
     7
 10
0.29
 20
0.1799999999999999
 30
0.0
 11
0.25
 21
0.1799999999999999
 31
0.0
  0
LINE
  5
84
  8
ASHADE
  6
CONTINUOUS
 62
     7
 10
0.29
 20
0.22
 30
0.0
 11
0.29
 21
0.1799999999999999
 31
0.0
  0
ENDBLK
  5
86
  8
0
  0
BLOCK
  8
ASHADE
  2
AVE_RENDER
 70
     0
 10
0.0
 20
0.0
 30
0.0
  3
AVE_RENDER
  1
AVE_RENDER
  0
ENDBLK
  5
93
  8
0
  0
BLOCK
  8
ASHADE
  2
AVE_GLOBAL
 70
     0
 10
0.0
 20
0.0
 30
0.0
  3
AVE_GLOBAL
  1
AVE_GLOBAL
  0
ENDBLK
  5
A1
  8
0
  0
ENDSEC
  0
SECTION
  2
ENTITIES
  0
INSERT
  5
94
  8
ASHADE
 62
     1
  2
AVE_RENDER
 10
0.0
 20
0.0
 30
0.0
1001
AVE_RENDER
1002
{
1070
     7
1000
Pref
1070
    30
1070
    20
1070
     1
1070
     0
1000

1070
    10
1070
     1
1070
    10
1040
1.0
1070
     1
1040
0.3
1040
0.7
1040
0.0
1040
10.0
1010
-1.0
1020
-1.0
1030
-1.0
1040
0.3
1070
    49
1070
     0
1070
     0
1010
1.0
1020
1.0
1030
1.0
1040
45.0
1070
     1
1070
     0
1000
WCS
1040
0.0
1070
     0
1040
10.0
1002
}
  0
INSERT
  5
95
  8
ASHADE
 62
     3
  2
AVE_RENDER
 10
0.0
 20
0.0
 30
0.0
1001
AVE_RENDER
1002
{
1070
     0
1000
Full Opt
1070
     0
1070
     1
1070
     1
1070
     1
1070
     0
1070
     0
1070
     0
1070
     1
1070
     1
1040
0.0001
1040
0.0001
1002
}
  0
INSERT
  5
96
  8
ASHADE
 62
     4
  2
AVE_RENDER
 10
0.0
 20
0.0
 30
0.0
1001
AVE_RENDER
1002
{
1070
     0
1000
Quick Opt
1070
     0
1070
     1
1070
     1
1070
     1
1070
     0
1070
     0
1070
     1
1002
}
  0
INSERT
  5
97
  8
ASHADE
 62
     5
  2
AVE_RENDER
 10
0.0
 20
0.0
 30
0.0
1001
AVE_RENDER
1002
{
1070
     1
1000
Scanl Opt
1070
     2
1070
     0
1070
     2
1040
2.0
1040
4.0
1070
     0
1070
     1
1070
     0
1040
0.03
1002
}
  0
INSERT
  5
98
  8
ASHADE
 62
     6
  2
AVE_RENDER
 10
0.0
 20
0.0
 30
0.0
1001
AVE_RENDER
1002
{
1070
     2
1000
Raytr Opt
1070
     2
1070
     0
1070
     2
1040
2.0
1040
4.0
1070
     0
1070
     1
1070
     1
1040
0.03
1070
     3
1040
0.03
1002
}
  0
INSERT
  5
99
  8
ASHADE
 62
     7
  2
AVE_RENDER
 10
0.0
 20
0.0
 30
0.0
1001
AVE_RENDER
1002
{
1070
     0
1000
RFile Opt
1070
     1
1070
   640
1070
   480
1070
 10000
1070
     1
1070
     8
1070
     8
1070
     0
1070
     0
1070
     0
1070
     0
1070
     0
1070
     0
1070
     0
1002
}
  0
INSERT
  5
9A
  8
ASHADE
 62
     8
  2
AVE_RENDER
 10
0.0
 20
0.0
 30
0.0
1001
AVE_RENDER
1002
{
1070
     0
1000
Fog Opt
1070
     0
1070
     0
1040
0.0
1040
1.0
1040
0.0
1040
1.0
1010
0.5
1020
0.5
1030
0.5
1002
}
  0
INSERT
  5
9B
  8
ASHADE
 62
     9
  2
AVE_RENDER
 10
0.0
 20
0.0
 30
0.0
1001
AVE_RENDER
1002
{
1070
     0
1000
BG Opt
1070
     0
1070
     1
1010
0.0
1020
0.0
1030
0.0
1010
1.0
1020
0.0
1030
0.0
1010
0.0
1020
1.0
1030
0.0
1010
0.0
1020
0.0
1030
1.0
1040
0.5
1040
0.33
1040
0.0
1000

1070
     1
1000

1070
     1
1070
     1
1040
1.0
1040
1.0
1040
0.0
1040
0.0
1070
     0
1002
}
  0
INSERT
  5
A2
  8
ASHADE
 62
     1
  2
AVE_GLOBAL
 10
0.0
 20
0.0
 30
0.0
1001
AVE_MATERIAL
1002
{
1000
*GLOBAL*
1000
2
1000
Global finish.
1002
{
1002
}
1002
{
1070
    63
1002
{
1002
{
1010
-1.0
1020
-1.0
1030
-1.0
1002
}
1040
0.1000000014901161
1000

1040
0.0
1002
{
1002
}
1040
0.0
1002
{
1002
}
1040
0.0
1002
}
1002
{
1002
{
1010
-1.0
1020
-1.0
1030
-1.0
1002
}
1040
0.699999988079071
1000

1040
0.0
1002
{
1002
}
1040
0.0
1002
{
1002
}
1040
0.0
1002
}
1002
{
1002
{
1010
-1.0
1020
-1.0
1030
-1.0
1002
}
1040
0.2000000029802322
1000

1040
0.0
1002
{
1002
}
1040
0.0
1002
{
1002
}
1040
0.0
1002
}
1002
{
1070
     0
1002
{
1070
     1
1002
{
1040
1.0
1040
1.0
1000

1040
0.0
1002
{
1002
}
1040
0.0
1002
{
1002
}
1040
0.0
1002
}
1002
}
1040
1.0
1040
0.0
1040
0.0
1002
}
1002
{
1040
1.0
1040
1.0
1000

1040
0.0
1002
{
1002
}
1040
0.0
1002
{
1002
}
1040
0.0
1002
}
1002
{
1040
0.5
1040
1.0
1000

1040
0.0
1002
{
1002
}
1040
0.0
1002
{
1002
}
1040
0.0
1002
}
1002
{
1070
     0
1040
0.0
1002
{
1002
}
1040
1.0
1002
{
1002
}
1040
0.0
1002
}
1002
{
1040
0.0
1002
{
1002
{
1010
0.0
1020
0.0
1030
0.0
1002
}
1040
1.0
1000

1040
0.0
1002
{
1002
}
1040
0.0
1002
{
1002
}
1040
0.0
1002
}
1002
}
1002
{
1002
{
1070
     1
1002
{
1040
0.0
1040
1.0
1000

1040
0.0
1002
{
1002
}
1040
0.0
1002
{
1002
}
1040
0.0
1002
}
1002
}
1040
0.0
1002
{
1002
}
1010
1.0
1020
0.0
1030
0.0
1010
0.0
1020
1.0
1030
0.0
1010
0.0
1020
0.0
1030
1.0
1070
     0
1002
}
1002
{
1002
{
1040
1.0
1040
1.0
1002
{
1070
     1
1002
{
1040
1.0
1040
1.0
1000

1040
0.0
1002
{
1002
}
1040
0.0
1002
{
1002
}
1040
0.0
1002
}
1002
}
1002
}
1070
     0
1040
0.0
1002
{
1002
}
1002
}
1002
{
1002
}
1002
}
1002
{
1071
        3
1070
     3
1070
     0
1002
{
1070
     2
1070
     0
1070
     0
1040
0.0
1002
}
1070
     0
1070
     2
1002
{
1002
}
1002
}
1002
{
1040
8030.0
1040
190.30000305175781
1040
0.3050000071525574
1040
228.0
1040
545.0
1040
14.0
1040
17.39999961853027
1040
0.4560000002384186
1002
}
1002
}
  0
POLYLINE
  5
AE
  8
0
 62
   251
 66
     1
 10
0.0
 20
0.0
 30
0.0
 70
    64
 71
     8
 72
    12
  0
VERTEX
  5
AF
  8
0
 62
   251
 10
-31.633905410766602
 20
-8.0
 30
-46.5
 70
   192
  0
VERTEX
  5
B0
  8
0
 62
   251
 10
-31.633905410766602
 20
0.0
 30
-46.5
 70
   192
  0
VERTEX
  5
B1
  8
0
 62
   251
 10
30.366094589233398
 20
-8.0
 30
-46.5
 70
   192
  0
VERTEX
  5
B2
  8
0
 62
   251
 10
30.366094589233398
 20
0.0
 30
-46.5
 70
   192
  0
VERTEX
  5
B3
  8
0
 62
   251
 10
-31.633905410766602
 20
-8.0
 30
31.5
 70
   192
  0
VERTEX
  5
B4
  8
0
 62
   251
 10
-31.633905410766602
 20
0.0
 30
31.5
 70
   192
  0
VERTEX
  5
B5
  8
0
 62
   251
 10
30.366094589233398
 20
-8.0
 30
31.5
 70
   192
  0
VERTEX
  5
B6
  8
0
 62
   251
 10
30.366094589233398
 20
0.0
 30
31.5
 70
   192
  0
VERTEX
  5
B7
  8
0
 62
   251
 10
0.0
 20
0.0
 30
0.0
 70
   128
 71
     1
 72
    -2
 73
     3
 74
    -1
  0
VERTEX
  5
B8
  8
0
 62
   251
 10
0.0
 20
0.0
 30
0.0
 70
   128
 71
     2
 72
     4
 73
    -3
 74
    -2
  0
VERTEX
  5
B9
  8
0
 62
   251
 10
0.0
 20
0.0
 30
0.0
 70
   128
 71
     5
 72
    -6
 73
     1
 74
    -5
  0
VERTEX
  5
BA
  8
0
 62
   251
 10
0.0
 20
0.0
 30
0.0
 70
   128
 71
     6
 72
     2
 73
    -1
 74
    -6
  0
VERTEX
  5
BB
  8
0
 62
   251
 10
0.0
 20
0.0
 30
0.0
 70
   128
 71
     7
 72
    -8
 73
     5
 74
    -7
  0
VERTEX
  5
BC
  8
0
 62
   251
 10
0.0
 20
0.0
 30
0.0
 70
   128
 71
     8
 72
     6
 73
    -5
 74
    -8
  0
VERTEX
  5
BD
  8
0
 62
   251
 10
0.0
 20
0.0
 30
0.0
 70
   128
 71
     3
 72
    -4
 73
     7
 74
    -3
  0
VERTEX
  5
BE
  8
0
 62
   251
 10
0.0
 20
0.0
 30
0.0
 70
   128
 71
     4
 72
     8
 73
    -7
 74
    -4
  0
VERTEX
  5
BF
  8
0
 62
   251
 10
0.0
 20
0.0
 30
0.0
 70
   128
 71
     2
 72
    -6
 73
     4
 74
    -2
  0
VERTEX
  5
C0
  8
0
 62
   251
 10
0.0
 20
0.0
 30
0.0
 70
   128
 71
     6
 72
     8
 73
    -4
 74
    -6
  0
VERTEX
  5
C1
  8
0
 62
   251
 10
0.0
 20
0.0
 30
0.0
 70
   128
 71
     3
 72
    -7
 73
     1
 74
    -3
  0
VERTEX
  5
C2
  8
0
 62
   251
 10
0.0
 20
0.0
 30
0.0
 70
   128
 71
     7
 72
     5
 73
    -1
 74
    -7
  0
SEQEND
  5
C3
  8
0
 62
   251
  0
POLYLINE
  5
C4
  8
0
 62
   251
 66
     1
 10
0.0
 20
0.0
 30
0.0
 70
    64
 71
     8
 72
    12
  0
VERTEX
  5
C5
  8
0
 62
   251
 10
11.0
 20
-230.5
 30
-11.0
 70
   192
  0
VERTEX
  5
C6
  8
0
 62
   251
 10
-11.0
 20
-230.5
 30
-11.0
 70
   192
  0
VERTEX
  5
C7
  8
0
 62
   251
 10
11.0
 20
-230.5
 30
11.0
 70
   192
  0
VERTEX
  5
C8
  8
0
 62
   251
 10
-11.0
 20
-230.5
 30
11.0
 70
   192
  0
VERTEX
  5
C9
  8
0
 62
   251
 10
11.0
 20
-234.765380859375
 30
-11.0
 70
   192
  0
VERTEX
  5
CA
  8
0
 62
   251
 10
-11.0
 20
-234.765380859375
 30
-11.0
 70
   192
  0
VERTEX
  5
CB
  8
0
 62
   251
 10
11.0
 20
-234.765380859375
 30
11.0
 70
   192
  0
VERTEX
  5
CC
  8
0
 62
   251
 10
-11.0
 20
-234.765380859375
 30
11.0
 70
   192
  0
VERTEX
  5
CD
  8
0
 62
   251
 10
0.0
 20
0.0
 30
0.0
 70
   128
 71
     1
 72
    -2
 73
     3
 74
    -1
  0
VERTEX
  5
CE
  8
0
 62
   251
 10
0.0
 20
0.0
 30
0.0
 70
   128
 71
     2
 72
     4
 73
    -3
 74
    -2
  0
VERTEX
  5
CF
  8
0
 62
   251
 10
0.0
 20
0.0
 30
0.0
 70
   128
 71
     5
 72
    -6
 73
     1
 74
    -5
  0
VERTEX
  5
D0
  8
0
 62
   251
 10
0.0
 20
0.0
 30
0.0
 70
   128
 71
     6
 72
     2
 73
    -1
 74
    -6
  0
VERTEX
  5
D1
  8
0
 62
   251
 10
0.0
 20
0.0
 30
0.0
 70
   128
 71
     5
 72
    -7
 73
     6
 74
    -5
  0
VERTEX
  5
D2
  8
0
 62
   251
 10
0.0
 20
0.0
 30
0.0
 70
   128
 71
     7
 72
     8
 73
    -6
 74
    -7
  0
VERTEX
  5
D3
  8
0
 62
   251
 10
0.0
 20
0.0
 30
0.0
 70
   128
 71
     7
 72
    -3
 73
     8
 74
    -7
  0
VERTEX
  5
D4
  8
0
 62
   251
 10
0.0
 20
0.0
 30
0.0
 70
   128
 71
     3
 72
     4
 73
    -8
 74
    -3
  0
VERTEX
  5
D5
  8
0
 62
   251
 10
0.0
 20
0.0
 30
0.0
 70
   128
 71
     2
 72
    -6
 73
     4
 74
    -2
  0
VERTEX
  5
D6
  8
0
 62
   251
 10
0.0
 20
0.0
 30
0.0
 70
   128
 71
     6
 72
     8
 73
    -4
 74
    -6
  0
VERTEX
  5
D7
  8
0
 62
   251
 10
0.0
 20
0.0
 30
0.0
 70
   128
 71
     7
 72
    -5
 73
     3
 74
    -7
  0
VERTEX
  5
D8
  8
0
 62
   251
 10
0.0
 20
0.0
 30
0.0
 70
   128
 71
     5
 72
     1
 73
    -3
 74
    -5
  0
SEQEND
  5
D9
  8
0
 62
   251
  0
POLYLINE
  5
DA
  8
0
 62
     9
 66
     1
 10
0.0
 20
0.0
 30
0.0
 70
    64
 71
    36
 72
    68
  0
VERTEX
  5
DB
  8
0
 62
     9
 10
64.99859619140625
 20
-218.0
 30
6.1999993324279776
 70
   192
  0
VERTEX
  5
DC
  8
0
 62
     9
 10
62.0
 20
-218.0
 30
6.1999993324279776
 70
   192
  0
VERTEX
  5
DD
  8
0
 62
     9
 10
64.99859619140625
 20
-218.0
 30
-1.7999997138977051
 70
   192
  0
VERTEX
  5
DE
  8
0
 62
     9
 10
62.0
 20
-218.0
 30
-1.7999997138977051
 70
   192
  0
VERTEX
  5
DF
  8
0
 62
     9
 10
62.0
 20
-217.39067077636719
 30
9.2613554000854492
 70
   192
  0
VERTEX
  5
E0
  8
0
 62
     9
 10
64.99859619140625
 20
-215.6568603515625
 30
11.85685443878174
 70
   192
  0
VERTEX
  5
E1
  8
0
 62
     9
 10
62.0
 20
-215.6568603515625
 30
11.85685443878174
 70
   192
  0
VERTEX
  5
E2
  8
0
 62
     9
 10
64.99859619140625
 20
-217.39067077636719
 30
9.2613554000854492
 70
   192
  0
VERTEX
  5
E3
  8
0
 62
     9
 10
62.0
 20
-213.0614318847656
 30
13.590945243835449
 70
   192
  0
VERTEX
  5
E4
  8
0
 62
     9
 10
64.99859619140625
 20
-210.0
 30
14.19999980926514
 70
   192
  0
VERTEX
  5
E5
  8
0
 62
     9
 10
62.0
 20
-210.0
 30
14.19999980926514
 70
   192
  0
VERTEX
  5
E6
  8
0
 62
     9
 10
64.99859619140625
 20
-213.0614318847656
 30
13.590945243835449
 70
   192
  0
VERTEX
  5
E7
  8
0
 62
     9
 10
62.0
 20
-206.9385681152344
 30
13.590945243835449
 70
   192
  0
VERTEX
  5
E8
  8
0
 62
     9
 10
64.99859619140625
 20
-204.3431396484375
 30
11.85685443878174
 70
   192
  0
VERTEX
  5
E9
  8
0
 62
     9
 10
62.0
 20
-204.3431396484375
 30
11.85685443878174
 70
   192
  0
VERTEX
  5
EA
  8
0
 62
     9
 10
64.99859619140625
 20
-206.9385681152344
 30
13.590945243835449
 70
   192
  0
VERTEX
  5
EB
  8
0
 62
     9
 10
62.0
 20
-202.60932922363281
 30
9.2613554000854492
 70
   192
  0
VERTEX
  5
EC
  8
0
 62
     9
 10
64.99859619140625
 20
-202.0
 30
6.1999993324279776
 70
   192
  0
VERTEX
  5
ED
  8
0
 62
     9
 10
62.0
 20
-202.0
 30
6.1999993324279776
 70
   192
  0
VERTEX
  5
EE
  8
0
 62
     9
 10
64.99859619140625
 20
-202.60932922363281
 30
9.2613554000854492
 70
   192
  0
VERTEX
  5
EF
  8
0
 62
     9
 10
64.99859619140625
 20
-202.0
 30
-1.7999997138977051
 70
   192
  0
VERTEX
  5
F0
  8
0
 62
     9
 10
62.0
 20
-202.0
 30
-1.7999997138977051
 70
   192
  0
VERTEX
  5
F1
  8
0
 62
     9
 10
64.99859619140625
 20
-202.60932922363281
 30
-4.8613553047180167
 70
   192
  0
VERTEX
  5
F2
  8
0
 62
     9
 10
64.99859619140625
 20
-204.3431396484375
 30
-7.456854820251464
 70
   192
  0
VERTEX
  5
F3
  8
0
 62
     9
 10
62.0
 20
-204.3431396484375
 30
-7.456854820251464
 70
   192
  0
VERTEX
  5
F4
  8
0
 62
     9
 10
62.0
 20
-206.9385681152344
 30
-9.1909456253051758
 70
   192
  0
VERTEX
  5
F5
  8
0
 62
     9
 10
64.99859619140625
 20
-210.0
 30
-9.8000001907348633
 70
   192
  0
VERTEX
  5
F6
  8
0
 62
     9
 10
62.0
 20
-210.0
 30
-9.8000001907348633
 70
   192
  0
VERTEX
  5
F7
  8
0
 62
     9
 10
64.99859619140625
 20
-206.9385681152344
 30
-9.1909456253051758
 70
   192
  0
VERTEX
  5
F8
  8
0
 62
     9
 10
64.99859619140625
 20
-213.0614318847656
 30
-9.1909456253051758
 70
   192
  0
VERTEX
  5
F9
  8
0
 62
     9
 10
64.99859619140625
 20
-215.6568603515625
 30
-7.456854820251464
 70
   192
  0
VERTEX
  5
FA
  8
0
 62
     9
 10
62.0
 20
-215.6568603515625
 30
-7.456854820251464
 70
   192
  0
VERTEX
  5
FB
  8
0
 62
     9
 10
62.0
 20
-217.39067077636719
 30
-4.8613553047180167
 70
   192
  0
VERTEX
  5
FC
  8
0
 62
     9
 10
64.99859619140625
 20
-217.39067077636719
 30
-4.8613553047180167
 70
   192
  0
VERTEX
  5
FD
  8
0
 62
     9
 10
62.0
 20
-213.0614318847656
 30
-9.1909456253051758
 70
   192
  0
VERTEX
  5
FE
  8
0
 62
     9
 10
62.0
 20
-202.60932922363281
 30
-4.8613553047180167
 70
   192
  0
VERTEX
  5
FF
  8
0
 62
     9
 10
0.0
 20
0.0
 30
0.0
 70
   128
 71
     1
 72
    -2
 73
     3
 74
    -1
  0
VERTEX
  5
100
  8
0
 62
     9
 10
0.0
 20
0.0
 30
0.0
 70
   128
 71
     2
 72
     4
 73
    -3
 74
    -2
  0
VERTEX
  5
101
  8
0
 62
     9
 10
0.0
 20
0.0
 30
0.0
 70
   128
 71
     2
 72
    -1
 73
     5
 74
    -2
  0
VERTEX
  5
102
  8
0
 62
     9
 10
0.0
 20
0.0
 30
0.0
 70
   128
 71
     6
 72
    -7
 73
     8
 74
    -6
  0
VERTEX
  5
103
  8
0
 62
     9
 10
0.0
 20
0.0
 30
0.0
 70
   128
 71
     7
 72
    -6
 73
     9
 74
    -7
  0
VERTEX
  5
104
  8
0
 62
     9
 10
0.0
 20
0.0
 30
0.0
 70
   128
 71
    10
 72
   -11
 73
    12
 74
   -10
  0
VERTEX
  5
105
  8
0
 62
     9
 10
0.0
 20
0.0
 30
0.0
 70
   128
 71
    11
 72
   -10
 73
    13
 74
   -11
  0
VERTEX
  5
106
  8
0
 62
     9
 10
0.0
 20
0.0
 30
0.0
 70
   128
 71
    14
 72
   -15
 73
    16
 74
   -14
  0
VERTEX
  5
107
  8
0
 62
     9
 10
0.0
 20
0.0
 30
0.0
 70
   128
 71
    15
 72
   -14
 73
    17
 74
   -15
  0
VERTEX
  5
108
  8
0
 62
     9
 10
0.0
 20
0.0
 30
0.0
 70
   128
 71
    18
 72
   -19
 73
    20
 74
   -18
  0
VERTEX
  5
109
  8
0
 62
     9
 10
0.0
 20
0.0
 30
0.0
 70
   128
 71
    19
 72
    17
 73
   -20
 74
   -19
  0
VERTEX
  5
10A
  8
0
 62
     9
 10
0.0
 20
0.0
 30
0.0
 70
   128
 71
    20
 72
   -17
 73
    14
 74
   -20
  0
VERTEX
  5
10B
  8
0
 62
     9
 10
0.0
 20
0.0
 30
0.0
 70
   128
 71
    15
 72
    13
 73
   -16
 74
   -15
  0
VERTEX
  5
10C
  8
0
 62
     9
 10
0.0
 20
0.0
 30
0.0
 70
   128
 71
    16
 72
   -13
 73
    10
 74
   -16
  0
VERTEX
  5
10D
  8
0
 62
     9
 10
0.0
 20
0.0
 30
0.0
 70
   128
 71
    11
 72
     9
 73
   -12
 74
   -11
  0
VERTEX
  5
10E
  8
0
 62
     9
 10
0.0
 20
0.0
 30
0.0
 70
   128
 71
    12
 72
    -9
 73
     6
 74
   -12
  0
VERTEX
  5
10F
  8
0
 62
     9
 10
0.0
 20
0.0
 30
0.0
 70
   128
 71
     7
 72
     5
 73
    -8
 74
    -7
  0
VERTEX
  5
110
  8
0
 62
     9
 10
0.0
 20
0.0
 30
0.0
 70
   128
 71
     8
 72
    -5
 73
     1
 74
    -8
  0
VERTEX
  5
111
  8
0
 62
     9
 10
0.0
 20
0.0
 30
0.0
 70
   128
 71
    21
 72
   -22
 73
    18
 74
   -21
  0
VERTEX
  5
112
  8
0
 62
     9
 10
0.0
 20
0.0
 30
0.0
 70
   128
 71
    22
 72
    19
 73
   -18
 74
   -22
  0
VERTEX
  5
113
  8
0
 62
     9
 10
0.0
 20
0.0
 30
0.0
 70
   128
 71
    21
 72
   -23
 73
    22
 74
   -21
  0
VERTEX
  5
114
  8
0
 62
     9
 10
0.0
 20
0.0
 30
0.0
 70
   128
 71
    24
 72
   -25
 73
    23
 74
   -24
  0
VERTEX
  5
115
  8
0
 62
     9
 10
0.0
 20
0.0
 30
0.0
 70
   128
 71
    25
 72
   -24
 73
    26
 74
   -25
  0
VERTEX
  5
116
  8
0
 62
     9
 10
0.0
 20
0.0
 30
0.0
 70
   128
 71
    27
 72
   -28
 73
    29
 74
   -27
  0
VERTEX
  5
117
  8
0
 62
     9
 10
0.0
 20
0.0
 30
0.0
 70
   128
 71
    27
 72
   -30
 73
    28
 74
   -27
  0
VERTEX
  5
118
  8
0
 62
     9
 10
0.0
 20
0.0
 30
0.0
 70
   128
 71
    31
 72
   -32
 73
    30
 74
   -31
  0
VERTEX
  5
119
  8
0
 62
     9
 10
0.0
 20
0.0
 30
0.0
 70
   128
 71
    32
 72
   -31
 73
    33
 74
   -32
  0
VERTEX
  5
11A
  8
0
 62
     9
 10
0.0
 20
0.0
 30
0.0
 70
   128
 71
    31
 72
    34
 73
   -33
 74
   -31
  0
VERTEX
  5
11B
  8
0
 62
     9
 10
0.0
 20
0.0
 30
0.0
 70
   128
 71
     4
 72
   -33
 73
     3
 74
    -4
  0
VERTEX
  5
11C
  8
0
 62
     9
 10
0.0
 20
0.0
 30
0.0
 70
   128
 71
    32
 72
    35
 73
   -30
 74
   -32
  0
VERTEX
  5
11D
  8
0
 62
     9
 10
0.0
 20
0.0
 30
0.0
 70
   128
 71
    35
 72
   -28
 73
    30
 74
   -35
  0
VERTEX
  5
11E
  8
0
 62
     9
 10
0.0
 20
0.0
 30
0.0
 70
   128
 71
    28
 72
    26
 73
   -29
 74
   -28
  0
VERTEX
  5
11F
  8
0
 62
     9
 10
0.0
 20
0.0
 30
0.0
 70
   128
 71
    29
 72
   -26
 73
    24
 74
   -29
  0
VERTEX
  5
120
  8
0
 62
     9
 10
0.0
 20
0.0
 30
0.0
 70
   128
 71
    25
 72
    36
 73
   -23
 74
   -25
  0
VERTEX
  5
121
  8
0
 62
     9
 10
0.0
 20
0.0
 30
0.0
 70
   128
 71
    36
 72
   -22
 73
    23
 74
   -36
  0
VERTEX
  5
122
  8
0
 62
     9
 10
0.0
 20
0.0
 30
0.0
 70
   128
 71
    -3
 72
    33
 73
    34
 74
    -3
  0
VERTEX
  5
123
  8
0
 62
     9
 10
0.0
 20
0.0
 30
0.0
 70
   128
 71
    -2
 72
   -22
 73
     4
 74
    -2
  0
VERTEX
  5
124
  8
0
 62
     9
 10
0.0
 20
0.0
 30
0.0
 70
   128
 71
     5
 72
    -7
 73
     2
 74
    -5
  0
VERTEX
  5
125
  8
0
 62
     9
 10
0.0
 20
0.0
 30
0.0
 70
   128
 71
     7
 72
    -9
 73
    -2
 74
    -7
  0
VERTEX
  5
126
  8
0
 62
     9
 10
0.0
 20
0.0
 30
0.0
 70
   128
 71
     9
 72
   -11
 73
    -2
 74
    -9
  0
VERTEX
  5
127
  8
0
 62
     9
 10
0.0
 20
0.0
 30
0.0
 70
   128
 71
    11
 72
   -13
 73
    -2
 74
   -11
  0
VERTEX
  5
128
  8
0
 62
     9
 10
0.0
 20
0.0
 30
0.0
 70
   128
 71
    13
 72
   -15
 73
    -2
 74
   -13
  0
VERTEX
  5
129
  8
0
 62
     9
 10
0.0
 20
0.0
 30
0.0
 70
   128
 71
    15
 72
   -17
 73
    -2
 74
   -15
  0
VERTEX
  5
12A
  8
0
 62
     9
 10
0.0
 20
0.0
 30
0.0
 70
   128
 71
    17
 72
   -19
 73
    -2
 74
   -17
  0
VERTEX
  5
12B
  8
0
 62
     9
 10
0.0
 20
0.0
 30
0.0
 70
   128
 71
    19
 72
   -22
 73
    -2
 74
   -19
  0
VERTEX
  5
12C
  8
0
 62
     9
 10
0.0
 20
0.0
 30
0.0
 70
   128
 71
    22
 72
   -36
 73
    -4
 74
   -22
  0
VERTEX
  5
12D
  8
0
 62
     9
 10
0.0
 20
0.0
 30
0.0
 70
   128
 71
    36
 72
   -25
 73
    -4
 74
   -36
  0
VERTEX
  5
12E
  8
0
 62
     9
 10
0.0
 20
0.0
 30
0.0
 70
   128
 71
    25
 72
   -26
 73
    -4
 74
   -25
  0
VERTEX
  5
12F
  8
0
 62
     9
 10
0.0
 20
0.0
 30
0.0
 70
   128
 71
    26
 72
   -28
 73
    -4
 74
   -26
  0
VERTEX
  5
130
  8
0
 62
     9
 10
0.0
 20
0.0
 30
0.0
 70
   128
 71
    28
 72
   -35
 73
    -4
 74
   -28
  0
VERTEX
  5
131
  8
0
 62
     9
 10
0.0
 20
0.0
 30
0.0
 70
   128
 71
    35
 72
   -32
 73
    -4
 74
   -35
  0
VERTEX
  5
132
  8
0
 62
     9
 10
0.0
 20
0.0
 30
0.0
 70
   128
 71
    32
 72
    33
 73
    -4
 74
   -32
  0
VERTEX
  5
133
  8
0
 62
     9
 10
0.0
 20
0.0
 30
0.0
 70
   128
 71
    34
 72
   -31
 73
     3
 74
   -34
  0
VERTEX
  5
134
  8
0
 62
     9
 10
0.0
 20
0.0
 30
0.0
 70
   128
 71
    31
 72
   -30
 73
    -3
 74
   -31
  0
VERTEX
  5
135
  8
0
 62
     9
 10
0.0
 20
0.0
 30
0.0
 70
   128
 71
    30
 72
   -27
 73
    -3
 74
   -30
  0
VERTEX
  5
136
  8
0
 62
     9
 10
0.0
 20
0.0
 30
0.0
 70
   128
 71
    27
 72
   -29
 73
    -3
 74
   -27
  0
VERTEX
  5
137
  8
0
 62
     9
 10
0.0
 20
0.0
 30
0.0
 70
   128
 71
    29
 72
   -24
 73
    -3
 74
   -29
  0
VERTEX
  5
138
  8
0
 62
     9
 10
0.0
 20
0.0
 30
0.0
 70
   128
 71
    24
 72
   -23
 73
    -3
 74
   -24
  0
VERTEX
  5
139
  8
0
 62
     9
 10
0.0
 20
0.0
 30
0.0
 70
   128
 71
    23
 72
   -21
 73
    -3
 74
   -23
  0
VERTEX
  5
13A
  8
0
 62
     9
 10
0.0
 20
0.0
 30
0.0
 70
   128
 71
    -3
 72
   -21
 73
     1
 74
    -3
  0
VERTEX
  5
13B
  8
0
 62
     9
 10
0.0
 20
0.0
 30
0.0
 70
   128
 71
    21
 72
   -18
 73
    -1
 74
   -21
  0
VERTEX
  5
13C
  8
0
 62
     9
 10
0.0
 20
0.0
 30
0.0
 70
   128
 71
    18
 72
   -20
 73
    -1
 74
   -18
  0
VERTEX
  5
13D
  8
0
 62
     9
 10
0.0
 20
0.0
 30
0.0
 70
   128
 71
    20
 72
   -14
 73
    -1
 74
   -20
  0
VERTEX
  5
13E
  8
0
 62
     9
 10
0.0
 20
0.0
 30
0.0
 70
   128
 71
    14
 72
   -16
 73
    -1
 74
   -14
  0
VERTEX
  5
13F
  8
0
 62
     9
 10
0.0
 20
0.0
 30
0.0
 70
   128
 71
    16
 72
   -10
 73
    -1
 74
   -16
  0
VERTEX
  5
140
  8
0
 62
     9
 10
0.0
 20
0.0
 30
0.0
 70
   128
 71
    10
 72
   -12
 73
    -1
 74
   -10
  0
VERTEX
  5
141
  8
0
 62
     9
 10
0.0
 20
0.0
 30
0.0
 70
   128
 71
     8
 72
    -1
 73
     6
 74
    -8
  0
VERTEX
  5
142
  8
0
 62
     9
 10
0.0
 20
0.0
 30
0.0
 70
   128
 71
    -6
 72
    -1
 73
    12
 74
    -6
  0
SEQEND
  5
143
  8
0
 62
     9
  0
POLYLINE
  5
144
  8
0
 62
     9
 66
     1
 10
0.0
 20
0.0
 30
0.0
 70
    64
 71
   103
 72
   202
  0
VERTEX
  5
145
  8
0
 62
     9
 10
11.0
 20
-8.0
 30
-11.0
 70
   192
  0
VERTEX
  5
146
  8
0
 62
     9
 10
-11.0
 20
-8.0
 30
-11.0
 70
   192
  0
VERTEX
  5
147
  8
0
 62
     9
 10
11.0
 20
-8.0
 30
11.0
 70
   192
  0
VERTEX
  5
148
  8
0
 62
     9
 10
-11.0
 20
-8.0
 30
11.0
 70
   192
  0
VERTEX
  5
149
  8
0
 62
     9
 10
11.0
 20
-230.5
 30
-11.0
 70
   192
  0
VERTEX
  5
14A
  8
0
 62
     9
 10
-11.0
 20
-230.5
 30
-11.0
 70
   192
  0
VERTEX
  5
14B
  8
0
 62
     9
 10
11.0
 20
-230.5
 30
11.0
 70
   192
  0
VERTEX
  5
14C
  8
0
 62
     9
 10
-11.0
 20
-230.5
 30
11.0
 70
   192
  0
VERTEX
  5
14D
  8
0
 62
     9
 10
-11.0
 20
-206.93864440917969
 30
-9.1906661987304687
 70
   192
  0
VERTEX
  5
14E
  8
0
 62
     9
 10
-11.0
 20
-210.0
 30
-9.7999992370605469
 70
   192
  0
VERTEX
  5
14F
  8
0
 62
     9
 10
-11.0
 20
-204.3431396484375
 30
-7.4568543434143058
 70
   192
  0
VERTEX
  5
150
  8
0
 62
     9
 10
-11.0
 20
-202.60905456542969
 30
-4.8614349365234366
 70
   192
  0
VERTEX
  5
151
  8
0
 62
     9
 10
-11.0
 20
-202.0
 30
-1.799999952316284
 70
   192
  0
VERTEX
  5
152
  8
0
 62
     9
 10
-11.0
 20
-202.60905456542969
 30
1.26143479347229
 70
   192
  0
VERTEX
  5
153
  8
0
 62
     9
 10
-11.0
 20
-204.3431396484375
 30
3.8568542003631592
 70
   192
  0
VERTEX
  5
154
  8
0
 62
     9
 10
-11.0
 20
-210.0
 30
6.1999993324279776
 70
   192
  0
VERTEX
  5
155
  8
0
 62
     9
 10
-11.0
 20
-206.93864440917969
 30
5.5906672477722159
 70
   192
  0
VERTEX
  5
156
  8
0
 62
     9
 10
-11.0
 20
-213.06135559082031
 30
5.5906672477722159
 70
   192
  0
VERTEX
  5
157
  8
0
 62
     9
 10
-11.0
 20
-215.6568603515625
 30
3.8568542003631592
 70
   192
  0
VERTEX
  5
158
  8
0
 62
     9
 10
-11.0
 20
-217.39094543457031
 30
1.26143479347229
 70
   192
  0
VERTEX
  5
159
  8
0
 62
     9
 10
-11.0
 20
-218.0
 30
-1.799999952316284
 70
   192
  0
VERTEX
  5
15A
  8
0
 62
     9
 10
-11.0
 20
-217.39094543457031
 30
-4.8614349365234366
 70
   192
  0
VERTEX
  5
15B
  8
0
 62
     9
 10
-11.0
 20
-215.6568603515625
 30
-7.4568543434143058
 70
   192
  0
VERTEX
  5
15C
  8
0
 62
     9
 10
-11.0
 20
-213.06135559082031
 30
-9.1906661987304687
 70
   192
  0
VERTEX
  5
15D
  8
0
 62
     9
 10
11.0
 20
-213.06135559082031
 30
5.5906672477722159
 70
   192
  0
VERTEX
  5
15E
  8
0
 62
     9
 10
11.0
 20
-210.0
 30
6.1999993324279776
 70
   192
  0
VERTEX
  5
15F
  8
0
 62
     9
 10
11.0
 20
-215.6568603515625
 30
3.8568542003631592
 70
   192
  0
VERTEX
  5
160
  8
0
 62
     9
 10
11.0
 20
-204.3431396484375
 30
3.8568542003631592
 70
   192
  0
VERTEX
  5
161
  8
0
 62
     9
 10
11.0
 20
-206.93864440917969
 30
5.5906672477722159
 70
   192
  0
VERTEX
  5
162
  8
0
 62
     9
 10
11.0
 20
-202.60905456542969
 30
1.26143479347229
 70
   192
  0
VERTEX
  5
163
  8
0
 62
     9
 10
11.0
 20
-202.0
 30
-1.799999952316284
 70
   192
  0
VERTEX
  5
164
  8
0
 62
     9
 10
11.0
 20
-202.60905456542969
 30
-4.8614349365234366
 70
   192
  0
VERTEX
  5
165
  8
0
 62
     9
 10
11.0
 20
-204.3431396484375
 30
-7.4568543434143058
 70
   192
  0
VERTEX
  5
166
  8
0
 62
     9
 10
11.0
 20
-206.93864440917969
 30
-9.1906661987304687
 70
   192
  0
VERTEX
  5
167
  8
0
 62
     9
 10
11.0
 20
-213.06135559082031
 30
-9.1906661987304687
 70
   192
  0
VERTEX
  5
168
  8
0
 62
     9
 10
11.0
 20
-210.0
 30
-9.7999992370605469
 70
   192
  0
VERTEX
  5
169
  8
0
 62
     9
 10
11.0
 20
-215.6568603515625
 30
-7.4568543434143058
 70
   192
  0
VERTEX
  5
16A
  8
0
 62
     9
 10
11.0
 20
-217.39094543457031
 30
-4.8614349365234366
 70
   192
  0
VERTEX
  5
16B
  8
0
 62
     9
 10
11.0
 20
-218.0
 30
-1.799999952316284
 70
   192
  0
VERTEX
  5
16C
  8
0
 62
     9
 10
11.0
 20
-217.39094543457031
 30
1.26143479347229
 70
   192
  0
VERTEX
  5
16D
  8
0
 62
     9
 10
62.0
 20
-210.0
 30
-9.7999992370605469
 70
   192
  0
VERTEX
  5
16E
  8
0
 62
     9
 10
62.0
 20
-215.8456726074219
 30
-7.4874997138977051
 70
   192
  0
VERTEX
  5
16F
  8
0
 62
     9
 10
62.0
 20
-213.40997314453131
 30
-9.2765617370605469
 70
   192
  0
VERTEX
  5
170
  8
0
 62
     9
 10
62.0
 20
-217.30708312988281
 30
-4.8546876907348633
 70
   192
  0
VERTEX
  5
171
  8
0
 62
     9
 10
62.0
 20
-217.30708312988281
 30
1.2546875476837149
 70
   192
  0
VERTEX
  5
172
  8
0
 62
     9
 10
62.0
 20
-217.79423522949219
 30
-1.799999952316284
 70
   192
  0
VERTEX
  5
173
  8
0
 62
     9
 10
62.0
 20
-215.8456726074219
 30
3.8875000476837149
 70
   192
  0
VERTEX
  5
174
  8
0
 62
     9
 10
62.0
 20
-210.0
 30
6.1999998092651358
 70
   192
  0
VERTEX
  5
175
  8
0
 62
     9
 10
62.0
 20
-213.40997314453131
 30
5.6765623092651358
 70
   192
  0
VERTEX
  5
176
  8
0
 62
     9
 10
62.0
 20
-204.1543273925781
 30
3.8875000476837149
 70
   192
  0
VERTEX
  5
177
  8
0
 62
     9
 10
62.0
 20
-206.59002685546869
 30
5.6765623092651358
 70
   192
  0
VERTEX
  5
178
  8
0
 62
     9
 10
62.0
 20
-202.69291687011719
 30
1.2546875476837149
 70
   192
  0
VERTEX
  5
179
  8
0
 62
     9
 10
62.0
 20
-202.69291687011719
 30
-4.8546876907348633
 70
   192
  0
VERTEX
  5
17A
  8
0
 62
     9
 10
62.0
 20
-202.20576477050781
 30
-1.799999952316284
 70
   192
  0
VERTEX
  5
17B
  8
0
 62
     9
 10
62.0
 20
-204.1543273925781
 30
-7.4874997138977051
 70
   192
  0
VERTEX
  5
17C
  8
0
 62
     9
 10
62.0
 20
-206.59002685546869
 30
-9.2765617370605469
 70
   192
  0
VERTEX
  5
17D
  8
0
 62
     9
 10
62.0
 20
-210.0
 30
-1.799999952316284
 70
   192
  0
VERTEX
  5
17E
  8
0
 62
     9
 10
-62.0
 20
-210.0
 30
6.1999993324279776
 70
   192
  0
VERTEX
  5
17F
  8
0
 62
     9
 10
-62.0
 20
-213.06135559082031
 30
5.5906691551208487
 70
   192
  0
VERTEX
  5
180
  8
0
 62
     9
 10
-62.0
 20
-215.6568603515625
 30
3.8568542003631592
 70
   192
  0
VERTEX
  5
181
  8
0
 62
     9
 10
-62.0
 20
-218.0
 30
-1.799999952316284
 70
   192
  0
VERTEX
  5
182
  8
0
 62
     9
 10
-62.0
 20
-217.39067077636719
 30
1.2613619565963741
 70
   192
  0
VERTEX
  5
183
  8
0
 62
     9
 10
-62.0
 20
-216.92820739746091
 30
-5.8000001907348633
 70
   192
  0
VERTEX
  5
184
  8
0
 62
     9
 10
-62.0
 20
-217.72662353515631
 30
-3.8730893135070801
 70
   192
  0
VERTEX
  5
185
  8
0
 62
     9
 10
-62.0
 20
-215.65724182128909
 30
-7.4562726020812979
 70
   192
  0
VERTEX
  5
186
  8
0
 62
     9
 10
-62.0
 20
-212.0721130371094
 30
-9.5268478393554687
 70
   192
  0
VERTEX
  5
187
  8
0
 62
     9
 10
-62.0
 20
-214.0013732910156
 30
-8.7274284362792969
 70
   192
  0
VERTEX
  5
188
  8
0
 62
     9
 10
-62.0
 20
-210.0
 30
-9.7999992370605469
 70
   192
  0
VERTEX
  5
189
  8
0
 62
     9
 10
-62.0
 20
-206.93864440917969
 30
5.5906691551208487
 70
   192
  0
VERTEX
  5
18A
  8
0
 62
     9
 10
-62.0
 20
-202.60932922363281
 30
1.2613619565963741
 70
   192
  0
VERTEX
  5
18B
  8
0
 62
     9
 10
-62.0
 20
-202.0
 30
-1.799999952316284
 70
   192
  0
VERTEX
  5
18C
  8
0
 62
     9
 10
-62.0
 20
-203.07179260253909
 30
-5.8000001907348633
 70
   192
  0
VERTEX
  5
18D
  8
0
 62
     9
 10
-62.0
 20
-206.00010681152341
 30
-8.7282447814941406
 70
   192
  0
VERTEX
  5
18E
  8
0
 62
     9
 10
-62.0
 20
-207.92753601074219
 30
-9.5268039703369141
 70
   192
  0
VERTEX
  5
18F
  8
0
 62
     9
 10
-62.0
 20
-204.34400939941409
 30
-7.4575486183166504
 70
   192
  0
VERTEX
  5
190
  8
0
 62
     9
 10
-62.0
 20
-204.3431396484375
 30
3.8568542003631592
 70
   192
  0
VERTEX
  5
191
  8
0
 62
     9
 10
-64.99859619140625
 20
-218.0
 30
-1.7999997138977051
 70
   192
  0
VERTEX
  5
192
  8
0
 62
     9
 10
-64.99859619140625
 20
-215.6568603515625
 30
-7.4568543434143058
 70
   192
  0
VERTEX
  5
193
  8
0
 62
     9
 10
-64.99859619140625
 20
-217.39067077636719
 30
-4.8613553047180167
 70
   192
  0
VERTEX
  5
194
  8
0
 62
     9
 10
-64.99859619140625
 20
-213.0614318847656
 30
-9.1909446716308594
 70
   192
  0
VERTEX
  5
195
  8
0
 62
     9
 10
-64.99859619140625
 20
-206.9385681152344
 30
-9.1909446716308594
 70
   192
  0
VERTEX
  5
196
  8
0
 62
     9
 10
-64.99859619140625
 20
-210.0
 30
-9.7999992370605469
 70
   192
  0
VERTEX
  5
197
  8
0
 62
     9
 10
-64.99859619140625
 20
-202.60932922363281
 30
-4.8613553047180167
 70
   192
  0
VERTEX
  5
198
  8
0
 62
     9
 10
-64.99859619140625
 20
-204.3431396484375
 30
-7.4568543434143058
 70
   192
  0
VERTEX
  5
199
  8
0
 62
     9
 10
-64.99859619140625
 20
-202.0
 30
-1.7999997138977051
 70
   192
  0
VERTEX
  5
19A
  8
0
 62
     9
 10
-64.99859619140625
 20
-202.0
 30
6.1999993324279776
 70
   192
  0
VERTEX
  5
19B
  8
0
 62
     9
 10
-62.0
 20
-202.0
 30
6.1999993324279776
 70
   192
  0
VERTEX
  5
19C
  8
0
 62
     9
 10
-62.0
 20
-202.60932922363281
 30
9.2613554000854492
 70
   192
  0
VERTEX
  5
19D
  8
0
 62
     9
 10
-64.99859619140625
 20
-202.60932922363281
 30
9.2613554000854492
 70
   192
  0
VERTEX
  5
19E
  8
0
 62
     9
 10
-64.99859619140625
 20
-206.9385681152344
 30
13.59094619750976
 70
   192
  0
VERTEX
  5
19F
  8
0
 62
     9
 10
-62.0
 20
-204.3431396484375
 30
11.856855392456049
 70
   192
  0
VERTEX
  5
1A0
  8
0
 62
     9
 10
-64.99859619140625
 20
-204.3431396484375
 30
11.856855392456049
 70
   192
  0
VERTEX
  5
1A1
  8
0
 62
     9
 10
-62.0
 20
-206.9385681152344
 30
13.59094619750976
 70
   192
  0
VERTEX
  5
1A2
  8
0
 62
     9
 10
-64.99859619140625
 20
-213.0614318847656
 30
13.59094619750976
 70
   192
  0
VERTEX
  5
1A3
  8
0
 62
     9
 10
-62.0
 20
-210.0
 30
14.20000076293945
 70
   192
  0
VERTEX
  5
1A4
  8
0
 62
     9
 10
-64.99859619140625
 20
-210.0
 30
14.20000076293945
 70
   192
  0
VERTEX
  5
1A5
  8
0
 62
     9
 10
-64.99859619140625
 20
-215.6568603515625
 30
11.856855392456049
 70
   192
  0
VERTEX
  5
1A6
  8
0
 62
     9
 10
-62.0
 20
-215.6568603515625
 30
11.856855392456049
 70
   192
  0
VERTEX
  5
1A7
  8
0
 62
     9
 10
-62.0
 20
-217.39067077636719
 30
9.2613554000854492
 70
   192
  0
VERTEX
  5
1A8
  8
0
 62
     9
 10
-64.99859619140625
 20
-217.39067077636719
 30
9.2613554000854492
 70
   192
  0
VERTEX
  5
1A9
  8
0
 62
     9
 10
-62.0
 20
-218.0
 30
6.1999993324279776
 70
   192
  0
VERTEX
  5
1AA
  8
0
 62
     9
 10
-64.99859619140625
 20
-218.0
 30
6.1999993324279776
 70
   192
  0
VERTEX
  5
1AB
  8
0
 62
     9
 10
-62.0
 20
-213.0614318847656
 30
13.59094619750976
 70
   192
  0
VERTEX
  5
1AC
  8
0
 62
     9
 10
0.0
 20
0.0
 30
0.0
 70
   128
 71
     1
 72
    -2
 73
     3
 74
    -1
  0
VERTEX
  5
1AD
  8
0
 62
     9
 10
0.0
 20
0.0
 30
0.0
 70
   128
 71
     2
 72
     4
 73
    -3
 74
    -2
  0
VERTEX
  5
1AE
  8
0
 62
     9
 10
0.0
 20
0.0
 30
0.0
 70
   128
 71
     5
 72
    -6
 73
     1
 74
    -5
  0
VERTEX
  5
1AF
  8
0
 62
     9
 10
0.0
 20
0.0
 30
0.0
 70
   128
 71
     6
 72
     2
 73
    -1
 74
    -6
  0
VERTEX
  5
1B0
  8
0
 62
     9
 10
0.0
 20
0.0
 30
0.0
 70
   128
 71
     7
 72
    -8
 73
     5
 74
    -7
  0
VERTEX
  5
1B1
  8
0
 62
     9
 10
0.0
 20
0.0
 30
0.0
 70
   128
 71
     8
 72
     6
 73
    -5
 74
    -8
  0
VERTEX
  5
1B2
  8
0
 62
     9
 10
0.0
 20
0.0
 30
0.0
 70
   128
 71
     3
 72
    -4
 73
     7
 74
    -3
  0
VERTEX
  5
1B3
  8
0
 62
     9
 10
0.0
 20
0.0
 30
0.0
 70
   128
 71
     4
 72
     8
 73
    -7
 74
    -4
  0
VERTEX
  5
1B4
  8
0
 62
     9
 10
0.0
 20
0.0
 30
0.0
 70
   128
 71
    -9
 72
    -2
 73
    10
 74
    -9
  0
VERTEX
  5
1B5
  8
0
 62
     9
 10
0.0
 20
0.0
 30
0.0
 70
   128
 71
     9
 72
   -11
 73
    -2
 74
    -9
  0
VERTEX
  5
1B6
  8
0
 62
     9
 10
0.0
 20
0.0
 30
0.0
 70
   128
 71
    11
 72
   -12
 73
    -2
 74
   -11
  0
VERTEX
  5
1B7
  8
0
 62
     9
 10
0.0
 20
0.0
 30
0.0
 70
   128
 71
    12
 72
   -13
 73
    -2
 74
   -12
  0
VERTEX
  5
1B8
  8
0
 62
     9
 10
0.0
 20
0.0
 30
0.0
 70
   128
 71
    -2
 72
   -13
 73
     4
 74
    -2
  0
VERTEX
  5
1B9
  8
0
 62
     9
 10
0.0
 20
0.0
 30
0.0
 70
   128
 71
    13
 72
   -14
 73
    -4
 74
   -13
  0
VERTEX
  5
1BA
  8
0
 62
     9
 10
0.0
 20
0.0
 30
0.0
 70
   128
 71
    14
 72
   -15
 73
    -4
 74
   -14
  0
VERTEX
  5
1BB
  8
0
 62
     9
 10
0.0
 20
0.0
 30
0.0
 70
   128
 71
   -16
 72
    -8
 73
    17
 74
   -16
  0
VERTEX
  5
1BC
  8
0
 62
     9
 10
0.0
 20
0.0
 30
0.0
 70
   128
 71
    16
 72
   -18
 73
    -8
 74
   -16
  0
VERTEX
  5
1BD
  8
0
 62
     9
 10
0.0
 20
0.0
 30
0.0
 70
   128
 71
    18
 72
   -19
 73
    -8
 74
   -18
  0
VERTEX
  5
1BE
  8
0
 62
     9
 10
0.0
 20
0.0
 30
0.0
 70
   128
 71
    19
 72
   -20
 73
    -8
 74
   -19
  0
VERTEX
  5
1BF
  8
0
 62
     9
 10
0.0
 20
0.0
 30
0.0
 70
   128
 71
    20
 72
   -21
 73
    -8
 74
   -20
  0
VERTEX
  5
1C0
  8
0
 62
     9
 10
0.0
 20
0.0
 30
0.0
 70
   128
 71
    -8
 72
   -21
 73
     6
 74
    -8
  0
VERTEX
  5
1C1
  8
0
 62
     9
 10
0.0
 20
0.0
 30
0.0
 70
   128
 71
    21
 72
   -22
 73
    -6
 74
   -21
  0
VERTEX
  5
1C2
  8
0
 62
     9
 10
0.0
 20
0.0
 30
0.0
 70
   128
 71
    22
 72
   -23
 73
    -6
 74
   -22
  0
VERTEX
  5
1C3
  8
0
 62
     9
 10
0.0
 20
0.0
 30
0.0
 70
   128
 71
    23
 72
   -24
 73
    -6
 74
   -23
  0
VERTEX
  5
1C4
  8
0
 62
     9
 10
0.0
 20
0.0
 30
0.0
 70
   128
 71
     2
 72
    -6
 73
   -10
 74
    -2
  0
VERTEX
  5
1C5
  8
0
 62
     9
 10
0.0
 20
0.0
 30
0.0
 70
   128
 71
     8
 72
    -4
 73
   -17
 74
    -8
  0
VERTEX
  5
1C6
  8
0
 62
     9
 10
0.0
 20
0.0
 30
0.0
 70
   128
 71
   -10
 72
    -6
 73
    24
 74
   -10
  0
VERTEX
  5
1C7
  8
0
 62
     9
 10
0.0
 20
0.0
 30
0.0
 70
   128
 71
   -17
 72
    -4
 73
    15
 74
   -17
  0
VERTEX
  5
1C8
  8
0
 62
     9
 10
0.0
 20
0.0
 30
0.0
 70
   128
 71
    25
 72
   -26
 73
    -7
 74
   -25
  0
VERTEX
  5
1C9
  8
0
 62
     9
 10
0.0
 20
0.0
 30
0.0
 70
   128
 71
   -25
 72
    -7
 73
    27
 74
   -25
  0
VERTEX
  5
1CA
  8
0
 62
     9
 10
0.0
 20
0.0
 30
0.0
 70
   128
 71
   -28
 72
    -3
 73
    29
 74
   -28
  0
VERTEX
  5
1CB
  8
0
 62
     9
 10
0.0
 20
0.0
 30
0.0
 70
   128
 71
    28
 72
   -30
 73
    -3
 74
   -28
  0
VERTEX
  5
1CC
  8
0
 62
     9
 10
0.0
 20
0.0
 30
0.0
 70
   128
 71
    30
 72
   -31
 73
    -3
 74
   -30
  0
VERTEX
  5
1CD
  8
0
 62
     9
 10
0.0
 20
0.0
 30
0.0
 70
   128
 71
    -3
 72
   -31
 73
     1
 74
    -3
  0
VERTEX
  5
1CE
  8
0
 62
     9
 10
0.0
 20
0.0
 30
0.0
 70
   128
 71
    31
 72
   -32
 73
    -1
 74
   -31
  0
VERTEX
  5
1CF
  8
0
 62
     9
 10
0.0
 20
0.0
 30
0.0
 70
   128
 71
    32
 72
   -33
 73
    -1
 74
   -32
  0
VERTEX
  5
1D0
  8
0
 62
     9
 10
0.0
 20
0.0
 30
0.0
 70
   128
 71
    33
 72
   -34
 73
    -1
 74
   -33
  0
VERTEX
  5
1D1
  8
0
 62
     9
 10
0.0
 20
0.0
 30
0.0
 70
   128
 71
   -35
 72
    -5
 73
    36
 74
   -35
  0
VERTEX
  5
1D2
  8
0
 62
     9
 10
0.0
 20
0.0
 30
0.0
 70
   128
 71
    35
 72
   -37
 73
    -5
 74
   -35
  0
VERTEX
  5
1D3
  8
0
 62
     9
 10
0.0
 20
0.0
 30
0.0
 70
   128
 71
    37
 72
   -38
 73
    -5
 74
   -37
  0
VERTEX
  5
1D4
  8
0
 62
     9
 10
0.0
 20
0.0
 30
0.0
 70
   128
 71
    38
 72
   -39
 73
    -5
 74
   -38
  0
VERTEX
  5
1D5
  8
0
 62
     9
 10
0.0
 20
0.0
 30
0.0
 70
   128
 71
    -5
 72
   -39
 73
     7
 74
    -5
  0
VERTEX
  5
1D6
  8
0
 62
     9
 10
0.0
 20
0.0
 30
0.0
 70
   128
 71
    39
 72
   -40
 73
    -7
 74
   -39
  0
VERTEX
  5
1D7
  8
0
 62
     9
 10
0.0
 20
0.0
 30
0.0
 70
   128
 71
    40
 72
   -27
 73
    -7
 74
   -40
  0
VERTEX
  5
1D8
  8
0
 62
     9
 10
0.0
 20
0.0
 30
0.0
 70
   128
 71
     3
 72
    -7
 73
   -29
 74
    -3
  0
VERTEX
  5
1D9
  8
0
 62
     9
 10
0.0
 20
0.0
 30
0.0
 70
   128
 71
     5
 72
    -1
 73
   -36
 74
    -5
  0
VERTEX
  5
1DA
  8
0
 62
     9
 10
0.0
 20
0.0
 30
0.0
 70
   128
 71
    -7
 72
    26
 73
   -29
 74
    -7
  0
VERTEX
  5
1DB
  8
0
 62
     9
 10
0.0
 20
0.0
 30
0.0
 70
   128
 71
   -36
 72
    -1
 73
    34
 74
   -36
  0
VERTEX
  5
1DC
  8
0
 62
     9
 10
0.0
 20
0.0
 30
0.0
 70
   128
 71
    36
 72
   -41
 73
    35
 74
   -36
  0
VERTEX
  5
1DD
  8
0
 62
     9
 10
0.0
 20
0.0
 30
0.0
 70
   128
 71
    42
 72
   -37
 73
    43
 74
   -42
  0
VERTEX
  5
1DE
  8
0
 62
     9
 10
0.0
 20
0.0
 30
0.0
 70
   128
 71
    37
 72
   -42
 73
    38
 74
   -37
  0
VERTEX
  5
1DF
  8
0
 62
     9
 10
0.0
 20
0.0
 30
0.0
 70
   128
 71
    42
 72
    44
 73
   -38
 74
   -42
  0
VERTEX
  5
1E0
  8
0
 62
     9
 10
0.0
 20
0.0
 30
0.0
 70
   128
 71
    45
 72
   -40
 73
    46
 74
   -45
  0
VERTEX
  5
1E1
  8
0
 62
     9
 10
0.0
 20
0.0
 30
0.0
 70
   128
 71
    45
 72
   -47
 73
    40
 74
   -45
  0
VERTEX
  5
1E2
  8
0
 62
     9
 10
0.0
 20
0.0
 30
0.0
 70
   128
 71
   -40
 72
    47
 73
    27
 74
   -40
  0
VERTEX
  5
1E3
  8
0
 62
     9
 10
0.0
 20
0.0
 30
0.0
 70
   128
 71
   -48
 72
    25
 73
    49
 74
   -48
  0
VERTEX
  5
1E4
  8
0
 62
     9
 10
0.0
 20
0.0
 30
0.0
 70
   128
 71
    48
 72
    26
 73
   -25
 74
   -48
  0
VERTEX
  5
1E5
  8
0
 62
     9
 10
0.0
 20
0.0
 30
0.0
 70
   128
 71
    25
 72
   -27
 73
    49
 74
   -25
  0
VERTEX
  5
1E6
  8
0
 62
     9
 10
0.0
 20
0.0
 30
0.0
 70
   128
 71
   -49
 72
    27
 73
    47
 74
   -49
  0
VERTEX
  5
1E7
  8
0
 62
     9
 10
0.0
 20
0.0
 30
0.0
 70
   128
 71
    40
 72
    39
 73
   -46
 74
   -40
  0
VERTEX
  5
1E8
  8
0
 62
     9
 10
0.0
 20
0.0
 30
0.0
 70
   128
 71
    39
 72
   -38
 73
    46
 74
   -39
  0
VERTEX
  5
1E9
  8
0
 62
     9
 10
0.0
 20
0.0
 30
0.0
 70
   128
 71
    37
 72
    35
 73
   -43
 74
   -37
  0
VERTEX
  5
1EA
  8
0
 62
     9
 10
0.0
 20
0.0
 30
0.0
 70
   128
 71
   -35
 72
    41
 73
    43
 74
   -35
  0
VERTEX
  5
1EB
  8
0
 62
     9
 10
0.0
 20
0.0
 30
0.0
 70
   128
 71
    38
 72
    44
 73
   -46
 74
   -38
  0
VERTEX
  5
1EC
  8
0
 62
     9
 10
0.0
 20
0.0
 30
0.0
 70
   128
 71
    26
 72
   -48
 73
    29
 74
   -26
  0
VERTEX
  5
1ED
  8
0
 62
     9
 10
0.0
 20
0.0
 30
0.0
 70
   128
 71
    50
 72
   -28
 73
    51
 74
   -50
  0
VERTEX
  5
1EE
  8
0
 62
     9
 10
0.0
 20
0.0
 30
0.0
 70
   128
 71
    28
 72
   -50
 73
    30
 74
   -28
  0
VERTEX
  5
1EF
  8
0
 62
     9
 10
0.0
 20
0.0
 30
0.0
 70
   128
 71
    50
 72
    52
 73
   -30
 74
   -50
  0
VERTEX
  5
1F0
  8
0
 62
     9
 10
0.0
 20
0.0
 30
0.0
 70
   128
 71
    53
 72
   -32
 73
    54
 74
   -53
  0
VERTEX
  5
1F1
  8
0
 62
     9
 10
0.0
 20
0.0
 30
0.0
 70
   128
 71
    53
 72
   -55
 73
    32
 74
   -53
  0
VERTEX
  5
1F2
  8
0
 62
     9
 10
0.0
 20
0.0
 30
0.0
 70
   128
 71
   -32
 72
    55
 73
    33
 74
   -32
  0
VERTEX
  5
1F3
  8
0
 62
     9
 10
0.0
 20
0.0
 30
0.0
 70
   128
 71
   -41
 72
    34
 73
    56
 74
   -41
  0
VERTEX
  5
1F4
  8
0
 62
     9
 10
0.0
 20
0.0
 30
0.0
 70
   128
 71
    41
 72
    36
 73
   -34
 74
   -41
  0
VERTEX
  5
1F5
  8
0
 62
     9
 10
0.0
 20
0.0
 30
0.0
 70
   128
 71
    34
 72
   -33
 73
    56
 74
   -34
  0
VERTEX
  5
1F6
  8
0
 62
     9
 10
0.0
 20
0.0
 30
0.0
 70
   128
 71
   -56
 72
    33
 73
    55
 74
   -56
  0
VERTEX
  5
1F7
  8
0
 62
     9
 10
0.0
 20
0.0
 30
0.0
 70
   128
 71
    32
 72
    31
 73
   -54
 74
   -32
  0
VERTEX
  5
1F8
  8
0
 62
     9
 10
0.0
 20
0.0
 30
0.0
 70
   128
 71
    31
 72
   -30
 73
    54
 74
   -31
  0
VERTEX
  5
1F9
  8
0
 62
     9
 10
0.0
 20
0.0
 30
0.0
 70
   128
 71
    28
 72
    29
 73
   -51
 74
   -28
  0
VERTEX
  5
1FA
  8
0
 62
     9
 10
0.0
 20
0.0
 30
0.0
 70
   128
 71
   -29
 72
    48
 73
    51
 74
   -29
  0
VERTEX
  5
1FB
  8
0
 62
     9
 10
0.0
 20
0.0
 30
0.0
 70
   128
 71
    30
 72
    52
 73
   -54
 74
   -30
  0
VERTEX
  5
1FC
  8
0
 62
     9
 10
0.0
 20
0.0
 30
0.0
 70
   128
 71
    48
 72
   -49
 73
   -57
 74
   -48
  0
VERTEX
  5
1FD
  8
0
 62
     9
 10
0.0
 20
0.0
 30
0.0
 70
   128
 71
    49
 72
   -47
 73
   -57
 74
   -49
  0
VERTEX
  5
1FE
  8
0
 62
     9
 10
0.0
 20
0.0
 30
0.0
 70
   128
 71
    47
 72
   -45
 73
   -57
 74
   -47
  0
VERTEX
  5
1FF
  8
0
 62
     9
 10
0.0
 20
0.0
 30
0.0
 70
   128
 71
    45
 72
   -46
 73
   -57
 74
   -45
  0
VERTEX
  5
200
  8
0
 62
     9
 10
0.0
 20
0.0
 30
0.0
 70
   128
 71
    46
 72
   -44
 73
   -57
 74
   -46
  0
VERTEX
  5
201
  8
0
 62
     9
 10
0.0
 20
0.0
 30
0.0
 70
   128
 71
    44
 72
   -42
 73
   -57
 74
   -44
  0
VERTEX
  5
202
  8
0
 62
     9
 10
0.0
 20
0.0
 30
0.0
 70
   128
 71
    42
 72
   -43
 73
   -57
 74
   -42
  0
VERTEX
  5
203
  8
0
 62
     9
 10
0.0
 20
0.0
 30
0.0
 70
   128
 71
    43
 72
   -41
 73
   -57
 74
   -43
  0
VERTEX
  5
204
  8
0
 62
     9
 10
0.0
 20
0.0
 30
0.0
 70
   128
 71
    41
 72
   -56
 73
   -57
 74
   -41
  0
VERTEX
  5
205
  8
0
 62
     9
 10
0.0
 20
0.0
 30
0.0
 70
   128
 71
    56
 72
   -55
 73
   -57
 74
   -56
  0
VERTEX
  5
206
  8
0
 62
     9
 10
0.0
 20
0.0
 30
0.0
 70
   128
 71
    55
 72
   -53
 73
   -57
 74
   -55
  0
VERTEX
  5
207
  8
0
 62
     9
 10
0.0
 20
0.0
 30
0.0
 70
   128
 71
    53
 72
   -54
 73
   -57
 74
   -53
  0
VERTEX
  5
208
  8
0
 62
     9
 10
0.0
 20
0.0
 30
0.0
 70
   128
 71
    54
 72
   -52
 73
   -57
 74
   -54
  0
VERTEX
  5
209
  8
0
 62
     9
 10
0.0
 20
0.0
 30
0.0
 70
   128
 71
    52
 72
   -50
 73
   -57
 74
   -52
  0
VERTEX
  5
20A
  8
0
 62
     9
 10
0.0
 20
0.0
 30
0.0
 70
   128
 71
    50
 72
   -51
 73
   -57
 74
   -50
  0
VERTEX
  5
20B
  8
0
 62
     9
 10
0.0
 20
0.0
 30
0.0
 70
   128
 71
    51
 72
   -48
 73
   -57
 74
   -51
  0
VERTEX
  5
20C
  8
0
 62
     9
 10
0.0
 20
0.0
 30
0.0
 70
   128
 71
    16
 72
   -58
 73
    18
 74
   -16
  0
VERTEX
  5
20D
  8
0
 62
     9
 10
0.0
 20
0.0
 30
0.0
 70
   128
 71
    58
 72
    59
 73
   -18
 74
   -58
  0
VERTEX
  5
20E
  8
0
 62
     9
 10
0.0
 20
0.0
 30
0.0
 70
   128
 71
    18
 72
   -59
 73
    19
 74
   -18
  0
VERTEX
  5
20F
  8
0
 62
     9
 10
0.0
 20
0.0
 30
0.0
 70
   128
 71
    59
 72
    60
 73
   -19
 74
   -59
  0
VERTEX
  5
210
  8
0
 62
     9
 10
0.0
 20
0.0
 30
0.0
 70
   128
 71
   -61
 72
    20
 73
    62
 74
   -61
  0
VERTEX
  5
211
  8
0
 62
     9
 10
0.0
 20
0.0
 30
0.0
 70
   128
 71
   -20
 72
    61
 73
    21
 74
   -20
  0
VERTEX
  5
212
  8
0
 62
     9
 10
0.0
 20
0.0
 30
0.0
 70
   128
 71
    63
 72
    22
 73
   -64
 74
   -63
  0
VERTEX
  5
213
  8
0
 62
     9
 10
0.0
 20
0.0
 30
0.0
 70
   128
 71
    22
 72
   -63
 73
    23
 74
   -22
  0
VERTEX
  5
214
  8
0
 62
     9
 10
0.0
 20
0.0
 30
0.0
 70
   128
 71
   -63
 72
    65
 73
   -23
 74
   -63
  0
VERTEX
  5
215
  8
0
 62
     9
 10
0.0
 20
0.0
 30
0.0
 70
   128
 71
    66
 72
    24
 73
   -67
 74
   -66
  0
VERTEX
  5
216
  8
0
 62
     9
 10
0.0
 20
0.0
 30
0.0
 70
   128
 71
    68
 72
   -10
 73
   -66
 74
   -68
  0
VERTEX
  5
217
  8
0
 62
     9
 10
0.0
 20
0.0
 30
0.0
 70
   128
 71
    10
 72
    24
 73
   -66
 74
   -10
  0
VERTEX
  5
218
  8
0
 62
     9
 10
0.0
 20
0.0
 30
0.0
 70
   128
 71
    24
 72
   -23
 73
    67
 74
   -24
  0
VERTEX
  5
219
  8
0
 62
     9
 10
0.0
 20
0.0
 30
0.0
 70
   128
 71
    22
 72
   -21
 73
    64
 74
   -22
  0
VERTEX
  5
21A
  8
0
 62
     9
 10
0.0
 20
0.0
 30
0.0
 70
   128
 71
   -64
 72
    21
 73
   -61
 74
   -64
  0
VERTEX
  5
21B
  8
0
 62
     9
 10
0.0
 20
0.0
 30
0.0
 70
   128
 71
    20
 72
   -19
 73
    62
 74
   -20
  0
VERTEX
  5
21C
  8
0
 62
     9
 10
0.0
 20
0.0
 30
0.0
 70
   128
 71
   -62
 72
    19
 73
    60
 74
   -62
  0
VERTEX
  5
21D
  8
0
 62
     9
 10
0.0
 20
0.0
 30
0.0
 70
   128
 71
   -67
 72
    23
 73
   -65
 74
   -67
  0
VERTEX
  5
21E
  8
0
 62
     9
 10
0.0
 20
0.0
 30
0.0
 70
   128
 71
    16
 72
   -17
 73
    58
 74
   -16
  0
VERTEX
  5
21F
  8
0
 62
     9
 10
0.0
 20
0.0
 30
0.0
 70
   128
 71
   -58
 72
    17
 73
    69
 74
   -58
  0
VERTEX
  5
220
  8
0
 62
     9
 10
0.0
 20
0.0
 30
0.0
 70
   128
 71
    14
 72
   -70
 73
    15
 74
   -14
  0
VERTEX
  5
221
  8
0
 62
     9
 10
0.0
 20
0.0
 30
0.0
 70
   128
 71
    70
 72
   -14
 73
    71
 74
   -70
  0
VERTEX
  5
222
  8
0
 62
     9
 10
0.0
 20
0.0
 30
0.0
 70
   128
 71
    14
 72
    13
 73
   -71
 74
   -14
  0
VERTEX
  5
223
  8
0
 62
     9
 10
0.0
 20
0.0
 30
0.0
 70
   128
 71
   -11
 72
    72
 73
    12
 74
   -11
  0
VERTEX
  5
224
  8
0
 62
     9
 10
0.0
 20
0.0
 30
0.0
 70
   128
 71
     9
 72
   -73
 73
    11
 74
    -9
  0
VERTEX
  5
225
  8
0
 62
     9
 10
0.0
 20
0.0
 30
0.0
 70
   128
 71
    73
 72
     9
 73
   -74
 74
   -73
  0
VERTEX
  5
226
  8
0
 62
     9
 10
0.0
 20
0.0
 30
0.0
 70
   128
 71
   -68
 72
   -74
 73
    10
 74
   -68
  0
VERTEX
  5
227
  8
0
 62
     9
 10
0.0
 20
0.0
 30
0.0
 70
   128
 71
   -10
 72
    74
 73
     9
 74
   -10
  0
VERTEX
  5
228
  8
0
 62
     9
 10
0.0
 20
0.0
 30
0.0
 70
   128
 71
   -73
 72
    75
 73
   -11
 74
   -73
  0
VERTEX
  5
229
  8
0
 62
     9
 10
0.0
 20
0.0
 30
0.0
 70
   128
 71
   -75
 72
   -72
 73
    11
 74
   -75
  0
VERTEX
  5
22A
  8
0
 62
     9
 10
0.0
 20
0.0
 30
0.0
 70
   128
 71
   -72
 72
   -71
 73
    12
 74
   -72
  0
VERTEX
  5
22B
  8
0
 62
     9
 10
0.0
 20
0.0
 30
0.0
 70
   128
 71
    70
 72
    76
 73
   -15
 74
   -70
  0
VERTEX
  5
22C
  8
0
 62
     9
 10
0.0
 20
0.0
 30
0.0
 70
   128
 71
    76
 72
   -69
 73
    15
 74
   -76
  0
VERTEX
  5
22D
  8
0
 62
     9
 10
0.0
 20
0.0
 30
0.0
 70
   128
 71
   -15
 72
    69
 73
    17
 74
   -15
  0
VERTEX
  5
22E
  8
0
 62
     9
 10
0.0
 20
0.0
 30
0.0
 70
   128
 71
    71
 72
    13
 73
   -12
 74
   -71
  0
VERTEX
  5
22F
  8
0
 62
     9
 10
0.0
 20
0.0
 30
0.0
 70
   128
 71
    61
 72
   -77
 73
   -64
 74
   -61
  0
VERTEX
  5
230
  8
0
 62
     9
 10
0.0
 20
0.0
 30
0.0
 70
   128
 71
   -78
 72
    63
 73
    79
 74
   -78
  0
VERTEX
  5
231
  8
0
 62
     9
 10
0.0
 20
0.0
 30
0.0
 70
   128
 71
    80
 72
   -67
 73
    78
 74
   -80
  0
VERTEX
  5
232
  8
0
 62
     9
 10
0.0
 20
0.0
 30
0.0
 70
   128
 71
    67
 72
    80
 73
   -66
 74
   -67
  0
VERTEX
  5
233
  8
0
 62
     9
 10
0.0
 20
0.0
 30
0.0
 70
   128
 71
    81
 72
   -74
 73
    82
 74
   -81
  0
VERTEX
  5
234
  8
0
 62
     9
 10
0.0
 20
0.0
 30
0.0
 70
   128
 71
    74
 72
    81
 73
   -73
 74
   -74
  0
VERTEX
  5
235
  8
0
 62
     9
 10
0.0
 20
0.0
 30
0.0
 70
   128
 71
    83
 72
   -72
 73
    84
 74
   -83
  0
VERTEX
  5
236
  8
0
 62
     9
 10
0.0
 20
0.0
 30
0.0
 70
   128
 71
    85
 72
    71
 73
    83
 74
   -85
  0
VERTEX
  5
237
  8
0
 62
     9
 10
0.0
 20
0.0
 30
0.0
 70
   128
 71
   -71
 72
    72
 73
    83
 74
   -71
  0
VERTEX
  5
238
  8
0
 62
     9
 10
0.0
 20
0.0
 30
0.0
 70
   128
 71
   -72
 72
    75
 73
   -84
 74
   -72
  0
VERTEX
  5
239
  8
0
 62
     9
 10
0.0
 20
0.0
 30
0.0
 70
   128
 71
   -75
 72
   -73
 73
    84
 74
   -75
  0
VERTEX
  5
23A
  8
0
 62
     9
 10
0.0
 20
0.0
 30
0.0
 70
   128
 71
   -84
 72
    73
 73
    81
 74
   -84
  0
VERTEX
  5
23B
  8
0
 62
     9
 10
0.0
 20
0.0
 30
0.0
 70
   128
 71
   -74
 72
    68
 73
   -82
 74
   -74
  0
VERTEX
  5
23C
  8
0
 62
     9
 10
0.0
 20
0.0
 30
0.0
 70
   128
 71
   -68
 72
   -66
 73
    82
 74
   -68
  0
VERTEX
  5
23D
  8
0
 62
     9
 10
0.0
 20
0.0
 30
0.0
 70
   128
 71
   -82
 72
    66
 73
    80
 74
   -82
  0
VERTEX
  5
23E
  8
0
 62
     9
 10
0.0
 20
0.0
 30
0.0
 70
   128
 71
   -67
 72
    65
 73
   -78
 74
   -67
  0
VERTEX
  5
23F
  8
0
 62
     9
 10
0.0
 20
0.0
 30
0.0
 70
   128
 71
   -65
 72
   -63
 73
    78
 74
   -65
  0
VERTEX
  5
240
  8
0
 62
     9
 10
0.0
 20
0.0
 30
0.0
 70
   128
 71
   -63
 72
    64
 73
    79
 74
   -63
  0
VERTEX
  5
241
  8
0
 62
     9
 10
0.0
 20
0.0
 30
0.0
 70
   128
 71
    79
 72
   -64
 73
    77
 74
   -79
  0
VERTEX
  5
242
  8
0
 62
     9
 10
0.0
 20
0.0
 30
0.0
 70
   128
 71
    86
 72
   -87
 73
    85
 74
   -86
  0
VERTEX
  5
243
  8
0
 62
     9
 10
0.0
 20
0.0
 30
0.0
 70
   128
 71
    87
 72
    71
 73
   -85
 74
   -87
  0
VERTEX
  5
244
  8
0
 62
     9
 10
0.0
 20
0.0
 30
0.0
 70
   128
 71
    87
 72
   -86
 73
    88
 74
   -87
  0
VERTEX
  5
245
  8
0
 62
     9
 10
0.0
 20
0.0
 30
0.0
 70
   128
 71
    86
 72
    89
 73
   -88
 74
   -86
  0
VERTEX
  5
246
  8
0
 62
     9
 10
0.0
 20
0.0
 30
0.0
 70
   128
 71
   -90
 72
    91
 73
    92
 74
   -90
  0
VERTEX
  5
247
  8
0
 62
     9
 10
0.0
 20
0.0
 30
0.0
 70
   128
 71
   -91
 72
    90
 73
    93
 74
   -91
  0
VERTEX
  5
248
  8
0
 62
     9
 10
0.0
 20
0.0
 30
0.0
 70
   128
 71
   -94
 72
    95
 73
    96
 74
   -94
  0
VERTEX
  5
249
  8
0
 62
     9
 10
0.0
 20
0.0
 30
0.0
 70
   128
 71
    97
 72
   -98
 73
    94
 74
   -97
  0
VERTEX
  5
24A
  8
0
 62
     9
 10
0.0
 20
0.0
 30
0.0
 70
   128
 71
    98
 72
   -97
 73
    99
 74
   -98
  0
VERTEX
  5
24B
  8
0
 62
     9
 10
0.0
 20
0.0
 30
0.0
 70
   128
 71
    97
 72
   100
 73
   -99
 74
   -97
  0
VERTEX
  5
24C
  8
0
 62
     9
 10
0.0
 20
0.0
 30
0.0
 70
   128
 71
   101
 72
   -99
 73
   102
 74
  -101
  0
VERTEX
  5
24D
  8
0
 62
     9
 10
0.0
 20
0.0
 30
0.0
 70
   128
 71
    98
 72
   103
 73
   -94
 74
   -98
  0
VERTEX
  5
24E
  8
0
 62
     9
 10
0.0
 20
0.0
 30
0.0
 70
   128
 71
   103
 72
   -95
 73
    94
 74
  -103
  0
VERTEX
  5
24F
  8
0
 62
     9
 10
0.0
 20
0.0
 30
0.0
 70
   128
 71
    95
 72
   -93
 73
    96
 74
   -95
  0
VERTEX
  5
250
  8
0
 62
     9
 10
0.0
 20
0.0
 30
0.0
 70
   128
 71
   -96
 72
    93
 73
    90
 74
   -96
  0
VERTEX
  5
251
  8
0
 62
     9
 10
0.0
 20
0.0
 30
0.0
 70
   128
 71
    91
 72
   -88
 73
    92
 74
   -91
  0
VERTEX
  5
252
  8
0
 62
     9
 10
0.0
 20
0.0
 30
0.0
 70
   128
 71
   -92
 72
    88
 73
    89
 74
   -92
  0
VERTEX
  5
253
  8
0
 62
     9
 10
0.0
 20
0.0
 30
0.0
 70
   128
 71
  -102
 72
    99
 73
   100
 74
  -102
  0
VERTEX
  5
254
  8
0
 62
     9
 10
0.0
 20
0.0
 30
0.0
 70
   128
 71
   102
 72
   -77
 73
   101
 74
  -102
  0
VERTEX
  5
255
  8
0
 62
     9
 10
0.0
 20
0.0
 30
0.0
 70
   128
 71
    77
 72
    61
 73
  -101
 74
   -77
  0
VERTEX
  5
256
  8
0
 62
     9
 10
0.0
 20
0.0
 30
0.0
 70
   128
 71
    71
 72
   -87
 73
    70
 74
   -71
  0
VERTEX
  5
257
  8
0
 62
     9
 10
0.0
 20
0.0
 30
0.0
 70
   128
 71
   -88
 72
   -69
 73
    87
 74
   -88
  0
VERTEX
  5
258
  8
0
 62
     9
 10
0.0
 20
0.0
 30
0.0
 70
   128
 71
    88
 72
   -91
 73
   -69
 74
   -88
  0
VERTEX
  5
259
  8
0
 62
     9
 10
0.0
 20
0.0
 30
0.0
 70
   128
 71
    91
 72
   -93
 73
   -69
 74
   -91
  0
VERTEX
  5
25A
  8
0
 62
     9
 10
0.0
 20
0.0
 30
0.0
 70
   128
 71
   -69
 72
   -93
 73
    58
 74
   -69
  0
VERTEX
  5
25B
  8
0
 62
     9
 10
0.0
 20
0.0
 30
0.0
 70
   128
 71
    93
 72
   -95
 73
   -58
 74
   -93
  0
VERTEX
  5
25C
  8
0
 62
     9
 10
0.0
 20
0.0
 30
0.0
 70
   128
 71
   -98
 72
   -59
 73
   103
 74
   -98
  0
VERTEX
  5
25D
  8
0
 62
     9
 10
0.0
 20
0.0
 30
0.0
 70
   128
 71
    98
 72
   -99
 73
   -59
 74
   -98
  0
VERTEX
  5
25E
  8
0
 62
     9
 10
0.0
 20
0.0
 30
0.0
 70
   128
 71
    99
 72
  -101
 73
   -59
 74
   -99
  0
VERTEX
  5
25F
  8
0
 62
     9
 10
0.0
 20
0.0
 30
0.0
 70
   128
 71
    61
 72
   -62
 73
   101
 74
   -61
  0
VERTEX
  5
260
  8
0
 62
     9
 10
0.0
 20
0.0
 30
0.0
 70
   128
 71
    62
 72
   -60
 73
  -101
 74
   -62
  0
VERTEX
  5
261
  8
0
 62
     9
 10
0.0
 20
0.0
 30
0.0
 70
   128
 71
    60
 72
   -59
 73
  -101
 74
   -60
  0
VERTEX
  5
262
  8
0
 62
     9
 10
0.0
 20
0.0
 30
0.0
 70
   128
 71
    59
 72
   -58
 73
  -103
 74
   -59
  0
VERTEX
  5
263
  8
0
 62
     9
 10
0.0
 20
0.0
 30
0.0
 70
   128
 71
    69
 72
   -76
 73
   -87
 74
   -69
  0
VERTEX
  5
264
  8
0
 62
     9
 10
0.0
 20
0.0
 30
0.0
 70
   128
 71
    76
 72
   -70
 73
   -87
 74
   -76
  0
VERTEX
  5
265
  8
0
 62
     9
 10
0.0
 20
0.0
 30
0.0
 70
   128
 71
  -103
 72
   -58
 73
    95
 74
  -103
  0
VERTEX
  5
266
  8
0
 62
     9
 10
0.0
 20
0.0
 30
0.0
 70
   128
 71
    79
 72
   -77
 73
   -85
 74
   -79
  0
VERTEX
  5
267
  8
0
 62
     9
 10
0.0
 20
0.0
 30
0.0
 70
   128
 71
   -79
 72
   -85
 73
    78
 74
   -79
  0
VERTEX
  5
268
  8
0
 62
     9
 10
0.0
 20
0.0
 30
0.0
 70
   128
 71
  -100
 72
   -86
 73
   102
 74
  -100
  0
VERTEX
  5
269
  8
0
 62
     9
 10
0.0
 20
0.0
 30
0.0
 70
   128
 71
   100
 72
   -97
 73
   -86
 74
  -100
  0
VERTEX
  5
26A
  8
0
 62
     9
 10
0.0
 20
0.0
 30
0.0
 70
   128
 71
    97
 72
   -94
 73
   -86
 74
   -97
  0
VERTEX
  5
26B
  8
0
 62
     9
 10
0.0
 20
0.0
 30
0.0
 70
   128
 71
    94
 72
   -96
 73
   -86
 74
   -94
  0
VERTEX
  5
26C
  8
0
 62
     9
 10
0.0
 20
0.0
 30
0.0
 70
   128
 71
    96
 72
   -90
 73
   -86
 74
   -96
  0
VERTEX
  5
26D
  8
0
 62
     9
 10
0.0
 20
0.0
 30
0.0
 70
   128
 71
    90
 72
   -92
 73
   -86
 74
   -90
  0
VERTEX
  5
26E
  8
0
 62
     9
 10
0.0
 20
0.0
 30
0.0
 70
   128
 71
    92
 72
    89
 73
   -86
 74
   -92
  0
VERTEX
  5
26F
  8
0
 62
     9
 10
0.0
 20
0.0
 30
0.0
 70
   128
 71
    86
 72
   -85
 73
  -102
 74
   -86
  0
VERTEX
  5
270
  8
0
 62
     9
 10
0.0
 20
0.0
 30
0.0
 70
   128
 71
    83
 72
   -84
 73
    85
 74
   -83
  0
VERTEX
  5
271
  8
0
 62
     9
 10
0.0
 20
0.0
 30
0.0
 70
   128
 71
    84
 72
   -81
 73
   -85
 74
   -84
  0
VERTEX
  5
272
  8
0
 62
     9
 10
0.0
 20
0.0
 30
0.0
 70
   128
 71
    81
 72
   -82
 73
   -85
 74
   -81
  0
VERTEX
  5
273
  8
0
 62
     9
 10
0.0
 20
0.0
 30
0.0
 70
   128
 71
    82
 72
   -80
 73
   -85
 74
   -82
  0
VERTEX
  5
274
  8
0
 62
     9
 10
0.0
 20
0.0
 30
0.0
 70
   128
 71
    80
 72
   -78
 73
   -85
 74
   -80
  0
VERTEX
  5
275
  8
0
 62
     9
 10
0.0
 20
0.0
 30
0.0
 70
   128
 71
   -85
 72
    77
 73
  -102
 74
   -85
  0
SEQEND
  5
276
  8
0
 62
     9
  0
ENDSEC
  0
EOF
